<svg width="1522" height="899" viewBox="0 0 1522 899" fill="none" xmlns="http://www.w3.org/2000/svg">
<mask id="mask0_34_614" style="mask-type:alpha" maskUnits="userSpaceOnUse" x="0" y="0" width="1522" height="899">
<rect width="1522" height="899" fill="#C4C4C4"/>
</mask>
<g mask="url(#mask0_34_614)">
<path d="M1519 -0.999992L0 -1L-3.65529e-06 898.386L1519 898.386L1519 -0.999992Z" fill="#193166"/>
<path d="M488.357 591.896L556.475 546.502C548.304 582.293 576.162 573.135 589.943 584.768C584.283 591.203 579.263 596.847 573.111 603.728L582.954 621.697C580.1 623.133 578.032 624.915 576.309 624.866C554.211 624.371 533.392 633.578 509.718 620.509C472.903 600.114 373.238 653.38 365.265 691.596C392.925 682.933 421.668 673.824 450.509 665.111C455.058 663.152 460.11 662.701 464.931 663.824C504.698 682.239 539.642 648.082 580.837 656.151L570.157 676.795L593.683 708.724L558.148 712.09C557.509 719.466 556.721 727.931 555.885 737.337C528.273 719.912 503.665 696.992 474.774 688.181C443.521 678.577 410.791 691.893 381.851 712.932C394.204 712.932 406.46 712.685 418.912 712.932C423.918 712.902 428.899 713.653 433.677 715.16C471.821 728.327 509.914 741.841 552.34 756.742L530.537 773.029L538.117 808.423L503.27 791.344C500.76 796.641 497.758 802.978 494.903 809.117C466.702 802.137 462.321 793.968 465.373 767.682C466.308 760.009 460.451 746.248 454.2 743.674C417.716 727.871 376.525 727.09 339.474 741.496C324.709 747.09 317.917 755.357 324.119 771.198C342.624 764.366 360.884 754.762 380.226 751.099C417.582 744.02 434.366 756.049 445.194 792.384C452.134 815.749 464.339 822.086 503.566 821.146C517.839 854.956 538.019 883.767 580.592 879.014C588.073 878.173 594.52 867.827 598.605 864.163C585.759 854.857 574.832 850.106 569.763 841.74C567.647 838.274 578.426 820.503 582.856 820.651C595.062 821.196 611.549 824.166 618.292 832.631C641.178 861.491 620.359 906.638 583.594 906.885C562.036 906.885 540.43 897.331 518.528 892.034C519.512 899.212 521.087 910.351 522.859 923.271C504.008 926.291 493.328 916.142 487.619 900.549C481.91 884.955 478.859 868.669 472.264 853.719C466.962 842.67 458.358 833.566 447.655 827.68C448.344 840.155 451.1 852.927 449.229 864.956C447.359 876.986 440.912 887.331 441.404 889.262C426.639 879.064 410.594 870.352 397.6 858.273C377.913 839.808 382.835 818.671 411.135 795.9C399.864 777.583 385 775.801 368.07 786.444C337.653 805.601 330.664 836.789 327.711 869.56C326.924 878.52 327.711 887.579 327.711 899.262L299.51 900.797C297.295 880.995 298.821 861.193 292.324 844.461C284.378 823.402 272.48 804.075 257.281 787.533C243.894 773.424 226.225 777.632 213.281 793.968C247.044 825.947 246.651 838.522 213.872 870.154C206.264 878.628 199.319 887.681 193.101 897.232C173.414 878.025 171.15 866.688 172.676 824.61C165.293 835.501 156.385 845.7 150.922 857.481C144.475 871.59 143.194 888.371 135.467 901.489C129.167 912.182 116.618 919.162 106.873 927.825L101.951 922.133L106.528 890.945C84.7246 896.688 63.6594 906.39 42.5451 906.885C6.96081 907.776 -13.8093 869.659 2.8262 837.829C6.71439 830.403 14.2942 821.591 21.5784 820.057C31.5936 818.451 41.848 820.524 50.4685 825.898C54.898 828.769 57.5067 843.472 54.3076 847.432C49.1397 853.867 38.5094 855.798 26.6479 861.244C24.7777 876.094 38.41 880.401 52.7815 879.956C65.6161 879.948 78.1447 876.007 88.6962 868.658C99.2477 861.309 107.321 850.9 111.843 838.818C117.896 824.611 125.132 818.67 141.128 821.245C160.126 824.264 172.134 812.83 178.385 795.8C195.02 750.555 222.238 738.03 266.977 756.198C278.149 760.752 288.484 767.386 300.1 773.574C304.48 758.723 304.038 748.822 287.255 742.436C268.644 734.892 248.73 731.135 228.666 731.381C208.602 731.628 188.785 735.873 170.363 743.872C164.162 746.495 157.911 760.454 159.24 767.781C163.571 791.245 155.45 804.166 131.727 810.453L121.49 791.444L86.5453 808.522C90.2366 791.938 92.4519 781.89 94.4206 772.929L74.3887 758.574C77.5879 754.465 78.5232 752.237 79.5568 752.138C136.059 748.723 181.092 698.971 242.269 711.842C214.757 691.051 184.046 685.804 151.119 686.002C113.074 686.002 102.737 727.882 68.8265 738.971L67.351 711.842L30.9292 708.873L54.8002 676.2C51.2074 670.012 46.8763 662.587 42.5944 655.112L46.0394 648.775C68.5318 656.399 91.0241 664.072 113.566 671.547C115.937 672.167 118.438 672.063 120.751 671.25C170.855 653.874 215.397 668.428 261.76 693.427C257.675 685.655 255.263 676.2 249.308 670.26C216.726 637.489 176.269 621.301 130.792 617.094C126.714 616.796 122.616 616.996 118.586 617.688C93.9772 621.797 69.3684 626.103 44.7597 630.36L41.7569 622.292C45.1529 616.302 48.5986 610.361 53.3727 602.044L27.2379 584.966L68.3351 572.144V548.037L127.396 584.817L123.409 591.501C175.58 592.144 220.269 612.192 260.037 646.25C269.881 627.241 265.303 612.787 252.556 598.827C229.03 572.937 203.781 549.869 168.886 540.71C162.567 539.007 156.081 538.01 149.544 537.74C126.215 536.898 102.837 536.503 79.4583 535.958L77.4889 526.75L95.0599 510.019L77.6367 473.584L115.437 484.03C118.488 475.961 121.785 467.148 127.838 451.159C139.798 470.713 148.362 485.465 157.763 499.722C160.564 504.273 164.688 507.851 169.576 509.969C213.478 525.414 249.505 550.809 273.375 592.292C290.749 569.372 292.127 568.679 280.905 546.551C268.44 521.717 254.144 497.856 238.136 475.168C227.898 460.862 214.855 452.545 192.265 455.911C174.891 458.436 155.057 443.833 136.305 436.853V429.922L165.835 421.259C163.768 409.279 161.504 396.062 157.96 375.617L191.87 395.022L206.194 373.34L215.151 372.598C219.483 390.914 223.764 409.229 228.194 427.496C228.859 431.263 230.139 434.893 231.983 438.239C253.344 471.901 274.95 505.464 296.507 539.027L301.872 547.69C304.924 540.017 308.32 535.611 307.975 531.601C304.973 498.088 303.89 464.129 297.098 431.357C291.291 403.636 276.673 379.874 245.568 370.716C238.283 368.538 232.623 357.202 228.44 348.935C223.816 338.567 219.886 327.901 216.676 317.006C248.422 302.452 264.221 309.283 278.445 343.39C281.644 351.063 289.125 356.905 297.591 367.152C301.774 346.559 305.859 333.836 287.747 321.015C277.904 314.084 274.999 295.917 270.619 282.304C268.364 272.76 266.932 263.037 266.337 253.245C300.494 251.265 282.629 204.782 317.179 198L352.419 256.018L359.309 252.305C356.946 267.453 355.568 282.798 351.877 297.55C349.81 305.916 345.921 317.352 339.523 320.372C320.378 329.678 323.774 344.678 325.595 367.598C335.144 356.608 343.559 350.519 347.004 342.301C360.588 309.778 374.862 303.491 408.92 316.461C405.672 325.619 401.932 334.579 399.372 343.886C395.238 359.083 388.545 370.469 371.368 374.577C362.812 377.105 355.279 382.306 349.859 389.428C314.423 435.813 315.85 489.127 317.769 542.343L325.694 544.72C331.994 531.058 338.244 517.395 344.593 503.732C345.819 500.669 347.371 497.747 349.22 495.019C377.52 458.337 401.784 419.477 411.332 365.568L433.973 395.517L466.357 374.379C463.502 394.874 461.682 408.042 459.812 421.556L496.232 431.011C466.456 443.634 448 464.821 418.125 454.426C412.908 452.643 401.488 459.129 397.649 464.97C376.921 495.136 357.766 526.365 340.262 558.531C335.98 566.748 343.462 581.204 346.808 599.966C375.994 551.452 412.858 523.68 459.565 508.879C462.715 507.889 465.423 503.929 467.391 500.811C476.546 486.207 485.307 471.356 496.922 452C503.123 466.851 506.47 474.673 510.112 483.286L546.335 473.881C539.888 488.732 535.36 499.375 530.685 510.364L547.763 526.75L546.434 535.463C523.154 536.156 499.629 534.919 476.742 538.186C458.167 540.322 440.191 546.108 423.833 555.215C405.229 566.551 389.726 583.184 373.583 598.282C359.9 611.103 354.437 626.449 365.216 645.36C404.048 613.529 448.343 591.995 488.357 591.896ZM318.016 607.935H305.81C301.134 631.548 294.686 655.013 292.914 678.873C292.422 686.051 305.022 694.219 311.617 701.941C318.409 694.417 331.304 686.448 330.861 679.418C329.138 655.261 322.642 631.647 318.016 607.935ZM331.551 281.511L312.946 260.373C307.729 266.71 298.673 272.898 298.181 279.482C297.689 286.066 307.04 292.106 312.011 298.393L331.551 281.511Z" fill="#E08B19" fill-opacity="0.1"/>
<path d="M1018.5 314.929L950.379 360.323C958.549 324.532 930.692 333.691 916.911 322.057C922.571 315.622 927.591 309.978 933.743 303.097L923.899 285.128C926.754 283.693 928.822 281.91 930.544 281.959C952.643 282.454 973.462 273.247 997.136 286.316C1033.95 306.712 1133.62 253.446 1141.59 215.229C1113.93 223.892 1085.19 233.001 1056.34 241.714C1051.8 243.673 1046.74 244.124 1041.92 243.001C1002.16 224.586 967.212 258.743 926.017 250.674L936.696 230.03L913.17 198.101L948.705 194.735C949.345 187.359 950.132 178.894 950.969 169.488C978.58 186.913 1003.19 209.833 1032.08 218.645C1063.33 228.248 1096.06 214.932 1125 193.893C1112.65 193.893 1100.39 194.14 1087.94 193.893C1082.94 193.923 1077.95 193.172 1073.18 191.666C1035.03 178.498 996.939 164.984 954.514 150.083L976.317 133.797L968.737 98.4023L1003.58 115.481C1006.09 110.184 1009.1 103.847 1011.95 97.7086C1040.15 104.689 1044.53 112.857 1041.48 139.143C1040.55 146.816 1046.4 160.577 1052.65 163.152C1089.14 178.954 1130.33 179.736 1167.38 165.329C1182.14 159.736 1188.94 151.469 1182.73 135.628C1164.23 142.459 1145.97 152.063 1126.63 155.726C1089.27 162.805 1072.49 150.777 1061.66 114.441C1054.72 91.0758 1042.51 84.7391 1003.29 85.6796C989.015 51.869 968.835 23.0584 926.262 27.8107C918.781 28.6523 912.334 38.9984 908.248 42.6617C921.094 51.9683 932.021 56.7195 937.091 65.0856C939.207 68.5508 928.427 86.3225 923.998 86.174C911.792 85.6294 895.304 82.6596 888.561 74.1946C865.675 45.3342 886.495 0.187323 923.26 -0.0601709C944.817 -0.060169 966.424 9.49391 988.326 14.7908C987.341 7.61281 985.767 -3.52568 983.995 -16.446C1002.85 -19.4657 1013.53 -9.31712 1019.23 6.27639C1024.94 21.8699 1027.99 38.1562 1034.59 53.1062C1039.89 64.155 1048.5 73.2595 1059.2 79.1449C1058.51 66.6701 1055.75 53.8982 1057.62 41.8689C1059.49 29.8396 1065.94 19.4939 1065.45 17.5633C1080.21 27.7609 1096.26 36.4735 1109.25 48.5523C1128.94 67.017 1124.02 88.1541 1095.72 110.926C1106.99 129.242 1121.85 131.025 1138.78 120.381C1169.2 101.224 1176.19 70.0365 1179.14 37.2654C1179.93 28.3053 1179.14 19.2462 1179.14 7.56351L1207.34 6.0286C1209.56 25.8299 1208.03 45.6318 1214.53 62.3639C1222.48 83.423 1234.37 102.75 1249.57 119.293C1262.96 133.401 1280.63 129.193 1293.57 112.857C1259.81 80.8778 1260.2 68.3033 1292.98 36.6708C1300.59 28.1977 1307.53 19.1446 1313.75 9.5927C1333.44 28.8 1335.7 40.137 1334.18 82.2147C1341.56 71.324 1350.47 61.1257 1355.93 49.3439C1362.38 35.2355 1363.66 18.4545 1371.39 5.33611C1377.69 -5.35658 1390.24 -12.3369 1399.98 -20.9999L1404.9 -15.3075L1400.33 15.8798C1422.13 10.1374 1443.19 0.43487 1464.31 -0.0601236C1499.89 -0.951234 1520.66 37.166 1504.03 68.9965C1500.14 76.4221 1492.56 85.234 1485.28 86.7686C1475.26 88.374 1465.01 86.3008 1456.39 80.9276C1451.96 78.0564 1449.35 63.3534 1452.55 59.3932C1457.71 52.9578 1468.34 51.027 1480.21 45.5817C1482.08 30.7307 1468.44 26.4238 1454.07 26.8693C1441.24 26.8768 1428.71 30.8177 1418.16 38.167C1407.61 45.5163 1399.53 55.9253 1395.01 68.0067C1388.96 82.2141 1381.72 88.1548 1365.73 85.5806C1346.73 82.5609 1334.72 93.9956 1328.47 111.025C1311.83 156.271 1284.62 168.795 1239.88 150.627C1228.7 146.073 1218.37 139.439 1206.75 133.252C1202.37 148.103 1202.82 158.003 1219.6 164.389C1238.21 171.933 1258.12 175.69 1278.19 175.444C1298.25 175.198 1318.07 170.952 1336.49 162.953C1342.69 160.33 1348.94 146.371 1347.61 139.044C1343.28 115.58 1351.4 102.659 1375.13 96.3719L1385.36 115.382L1420.31 98.3033C1416.62 114.887 1414.4 124.936 1412.43 133.896L1432.46 148.251C1429.27 152.36 1428.33 154.588 1427.3 154.687C1370.79 158.103 1325.76 207.854 1264.58 194.983C1292.1 215.774 1322.81 221.022 1355.73 220.824C1393.78 220.824 1404.12 178.943 1438.03 167.854L1439.5 194.983L1475.92 197.953L1452.05 230.625C1455.65 236.813 1459.98 244.239 1464.26 251.714L1460.81 258.05C1438.32 250.427 1415.83 242.753 1393.29 235.278C1390.92 234.658 1388.42 234.762 1386.1 235.575C1336 252.951 1291.46 238.397 1245.09 213.398C1249.18 221.17 1251.59 230.625 1257.55 236.565C1290.13 269.336 1330.58 285.524 1376.06 289.732C1380.14 290.029 1384.24 289.829 1388.27 289.137C1412.88 285.028 1437.49 280.722 1462.09 276.465L1465.1 284.534C1461.7 290.523 1458.25 296.464 1453.48 304.781L1479.62 321.859L1438.52 334.681L1438.52 358.788L1379.46 322.008L1383.44 315.324C1331.27 314.681 1286.58 294.633 1246.82 260.575C1236.97 279.584 1241.55 294.038 1254.3 307.998C1277.82 333.888 1303.07 356.957 1337.97 366.115C1344.29 367.818 1350.77 368.815 1357.31 369.085C1380.64 369.927 1404.02 370.322 1427.4 370.867L1429.36 380.075L1411.79 396.806L1429.22 433.241L1391.42 422.796C1388.37 430.865 1385.07 439.677 1379.02 455.666C1367.06 436.113 1358.49 421.36 1349.09 407.104C1346.29 402.552 1342.17 398.975 1337.28 396.856C1293.38 381.411 1257.35 356.016 1233.48 314.533C1216.1 337.453 1214.73 338.146 1225.95 360.274C1238.41 385.108 1252.71 408.969 1268.72 431.657C1278.96 445.963 1292 454.281 1314.59 450.914C1331.96 448.39 1351.8 462.992 1370.55 469.972L1370.55 476.903L1341.02 485.567C1343.09 497.546 1345.35 510.764 1348.89 531.208L1314.98 511.803L1300.66 533.485L1291.7 534.227C1287.37 515.911 1283.09 497.596 1278.66 479.329C1277.99 475.563 1276.71 471.932 1274.87 468.586C1253.51 434.924 1231.9 401.361 1210.35 367.798L1204.98 359.135C1201.93 366.808 1198.53 371.214 1198.88 375.224C1201.88 408.737 1202.96 442.697 1209.76 475.468C1215.56 503.189 1230.18 526.951 1261.29 536.109C1268.57 538.287 1274.23 549.623 1278.41 557.89C1283.04 568.258 1286.97 578.925 1290.18 589.819C1258.43 604.373 1242.63 597.543 1228.41 563.435C1225.21 555.762 1217.73 549.92 1209.26 539.673C1205.08 560.266 1200.99 572.989 1219.11 585.81C1228.95 592.741 1231.85 610.908 1236.23 624.521C1238.49 634.065 1239.92 643.788 1240.52 653.58C1206.36 655.56 1224.22 702.043 1189.67 708.825L1154.43 650.808L1147.54 654.52C1149.91 639.372 1151.29 624.027 1154.98 609.275C1157.04 600.909 1160.93 589.473 1167.33 586.453C1186.48 577.147 1183.08 562.147 1181.26 539.227C1171.71 550.217 1163.29 556.306 1159.85 564.524C1146.27 597.047 1131.99 603.334 1097.93 590.364C1101.18 581.206 1104.92 572.246 1107.48 562.939C1111.62 547.742 1118.31 536.356 1135.49 532.248C1144.04 529.72 1151.57 524.519 1156.99 517.397C1192.43 471.012 1191 417.698 1189.08 364.482L1181.16 362.105C1174.86 375.768 1168.61 389.431 1162.26 403.093C1161.03 406.157 1159.48 409.078 1157.63 411.806C1129.33 448.488 1105.07 487.349 1095.52 541.258L1072.88 511.308L1040.5 532.446C1043.35 511.952 1045.17 498.784 1047.04 485.269L1010.62 475.815C1040.4 463.191 1058.85 442.004 1088.73 452.4C1093.95 454.182 1105.37 447.696 1109.2 441.855C1129.93 411.689 1149.09 380.461 1166.59 348.294C1170.87 340.077 1163.39 325.621 1160.05 306.86C1130.86 355.373 1094 383.145 1047.29 397.946C1044.14 398.936 1041.43 402.896 1039.46 406.015C1030.31 420.618 1021.55 435.47 1009.93 454.825C1003.73 439.974 1000.38 432.152 996.742 423.539L960.518 432.944C966.966 418.093 971.493 407.45 976.169 396.461L959.091 380.075L960.42 371.362C983.699 370.669 1007.23 371.907 1030.11 368.639C1048.69 366.503 1066.66 360.718 1083.02 351.611C1101.62 340.274 1117.13 323.642 1133.27 308.543C1146.95 295.722 1152.42 280.376 1141.64 261.466C1102.81 293.296 1058.51 314.83 1018.5 314.929ZM1188.84 298.89L1201.04 298.89C1205.72 275.277 1212.17 251.812 1213.94 227.952C1214.43 220.774 1201.83 212.606 1195.24 204.884C1188.44 212.408 1175.55 220.377 1175.99 227.407C1177.72 251.564 1184.21 275.178 1188.84 298.89ZM1175.3 625.314L1193.91 646.452C1199.12 640.115 1208.18 633.927 1208.67 627.343C1209.16 620.759 1199.81 614.719 1194.84 608.433L1175.3 625.314Z" fill="#E08B19" fill-opacity="0.1"/>
<path d="M788.168 155.394C796.648 159.101 803.992 163.282 811.89 165.456C819.262 167.49 827.215 167.379 836 168.243L826.744 197.204L793.212 189.204L781.462 210.723L816.463 229.788L797.064 254.874L766.774 237.816C758.017 248.017 749.703 257.745 740.586 268.476L778.774 284.587L753.833 317.143C743.69 308.363 734.157 300.057 723.958 291.193L707.331 309.031L739.921 341.504L706.194 374.701C698.573 362.772 690.897 350.842 682.168 337.24L663.018 351.929L685.687 393.6C661.522 418.686 648.192 418.992 619.676 394.742C624.193 386.38 628.765 378.019 633.393 369.461C643.37 351.177 643.37 351.176 623.14 338.578L599.169 375.928L566.773 341.532L599.196 310.565L582.015 291.75L552.03 317.617L526.866 285.228L565.11 269.145L539.088 238.484C529.222 244.059 519.689 249.271 508.853 255.208L489.067 230.345L523.984 211.364C520.049 203.81 516.53 197.009 512.733 189.678L478.979 197.455C475.764 187.783 472.716 178.696 470 170.585L518.608 157.652C527.892 174.041 538.007 193.246 549.286 211.586C573.34 250.414 601.746 285.479 637.162 314.718C648.552 324.139 656.561 324 667.785 314.718C716.919 274.162 752.336 223.209 781.212 166.989C782.93 163.672 784.455 160.3 786.173 157.011C786.478 156.732 787.364 156.118 788.168 155.394Z" fill="#CE4C16" fill-opacity="0.3"/>
<path d="M698.989 206.904C692.227 218.917 681.419 229.593 681.862 239.794C682.305 249.996 694.028 259.584 701.51 270.455L683.996 284.587L668.033 265.494C668.033 277.395 668.033 286.315 668.033 295.234C668.033 304.906 658.916 317.282 652.127 315.275C643.009 312.488 635.915 307.22 637.494 295.178C638.603 286.816 637.688 277.981 637.688 266.135L621.449 285.284L603.879 271.012C608.36 263.892 613.265 257.05 618.567 250.525C627.047 241.243 626.881 233.355 617.735 224.742C613.24 219.859 609.083 214.672 605.293 209.217L583.482 236.254L560.038 206.542C567.686 200.354 574.947 193.859 582.845 188.256C592.932 181.149 592.156 173.902 584.84 165.4C581.638 161.23 578.669 156.884 575.945 152.383L544.768 177.637C540.639 167.574 536.926 158.487 533.822 150.962L587.861 107.061C599.972 151.185 617.431 193.469 652.626 227.279C687.405 193.051 706.111 151.38 717.362 106.364L771.429 150.042C768.658 157.234 765.388 166.125 761.287 176.996L729.694 152.105L711.709 178.863L745.38 205.9L722.212 235.781C714.48 226.22 707.607 217.663 698.989 206.904Z" fill="#CE4C16" fill-opacity="0.3"/>
<path d="M652.683 189.371C633.727 165.038 618.375 140.007 611.114 110.712C610.061 106.531 609.34 99.8142 611.613 97.6679C631.926 78.5189 632.591 53.07 634.198 28.207C636.193 -2.20287 635.75 -2.2307 666.317 -0.307437C667.633 -0.0976129 668.923 0.248319 670.169 0.72421C671.388 18.4238 670.612 36.2908 674.354 53.1542C677.54 67.4811 686.187 80.5532 691.84 94.4063C693.725 99.0611 695.526 104.803 694.612 109.403C687.711 139.394 671.583 164.564 652.683 189.371ZM652.932 81.5849C631.898 99.7862 632.092 118.545 652.932 134.712C673.799 116.315 674.021 98.7827 652.932 81.4733L652.932 81.5849Z" fill="#CE4C16" fill-opacity="0.3"/>
<path d="M816.657 98.1973C798.644 97.0545 781.046 95.4102 763.421 95.02C743.44 94.7134 723.736 94.6293 706.97 81.3058C703.118 78.2397 698.989 75.5365 694.029 71.9965C724.512 71.9965 751.338 71.0485 778.136 72.3028C786.338 72.4979 794.316 75.0363 801.137 79.6216C807.958 84.2068 813.341 90.6496 816.657 98.1973Z" fill="#CE4C16" fill-opacity="0.3"/>
<path d="M608.286 71.7457C592.102 93.4869 568.186 95.3262 543.466 95.8001C525.453 96.1624 507.44 97.584 489.288 98.5874C496.05 82.4766 510.793 74.059 529.305 72.303C542.995 70.993 556.851 71.8572 570.625 71.8015C582.957 71.7179 595.289 71.7457 608.286 71.7457Z" fill="#CE4C16" fill-opacity="0.3"/>
<path d="M789.138 43.6763C775.281 46.4636 762.312 48.5823 749.536 51.6205C725.232 57.3903 702.425 56.916 685.298 40.0247C701.011 38.1293 717.999 36.5964 734.821 33.9206C754.386 30.7987 773.84 26.5341 789.138 43.6763Z" fill="#CE4C16" fill-opacity="0.3"/>
<path d="M515.837 44.736C530.469 28.2629 548.261 31.4404 566.274 34.2556C583.816 37.0429 601.497 38.9104 619.094 41.1682C608.425 51.0074 594.818 57.1396 578.745 55.1048C557.822 52.206 537.065 48.2481 515.837 44.736Z" fill="#CE4C16" fill-opacity="0.3"/>
<path d="M756.832 749.282C748.352 745.575 741.008 741.394 733.11 739.22C725.738 737.185 717.785 737.297 709 736.433L718.256 707.472L751.788 715.472L763.538 693.953L728.537 674.888L747.936 649.802L778.226 666.86C786.983 656.659 795.297 646.931 804.414 636.2L766.226 620.089L791.167 587.533C801.31 596.313 810.843 604.619 821.042 613.483L837.669 595.644L805.079 563.171L838.806 529.974C846.427 541.904 854.103 553.834 862.832 567.436L881.982 552.747L859.313 511.076C883.478 485.99 896.808 485.684 925.324 509.934C920.807 518.296 916.235 526.657 911.607 535.214C901.63 553.499 901.63 553.499 921.86 566.098L945.831 528.748L978.227 563.144L945.804 594.111L962.985 612.926L992.97 587.059L1018.13 619.448L979.89 635.531L1005.91 666.191C1015.78 660.617 1025.31 655.404 1036.15 649.467L1055.93 674.331L1021.02 693.312C1024.95 700.866 1028.47 707.667 1032.27 714.998L1066.02 707.221C1069.24 716.893 1072.28 725.98 1075 734.091L1026.39 747.024C1017.11 730.635 1006.99 711.43 995.714 693.09C971.66 654.262 943.254 619.197 907.838 589.958C896.448 580.537 888.439 580.676 877.215 589.958C828.081 630.514 792.664 681.466 763.788 737.687C762.07 741.004 760.545 744.376 758.827 747.665C758.522 747.944 757.636 748.557 756.832 749.282Z" fill="#CE4C16" fill-opacity="0.3"/>
<path d="M846.011 697.772C852.773 685.759 863.581 675.083 863.138 664.882C862.695 654.68 850.972 645.092 843.49 634.221L861.004 620.089L876.967 639.183C876.967 627.281 876.967 618.361 876.967 609.442C876.967 599.77 886.084 587.394 892.873 589.401C901.991 592.188 909.085 597.456 907.506 609.498C906.397 617.86 907.312 626.695 907.312 638.541L923.551 619.392L941.121 633.664C936.64 640.784 931.735 647.626 926.433 654.151C917.953 663.433 918.119 671.321 927.265 679.934C931.76 684.817 935.917 690.004 939.707 695.459L961.518 668.422L984.962 698.134C977.314 704.322 970.053 710.817 962.155 716.42C952.068 723.527 952.844 730.774 960.16 739.276C963.362 743.446 966.331 747.792 969.055 752.293L1000.23 727.039C1004.36 737.102 1008.07 746.189 1011.18 753.714L957.139 797.615C945.028 753.491 927.569 711.207 892.374 677.397C857.595 711.625 838.889 753.296 827.638 798.312L773.571 754.634C776.342 747.442 779.612 738.551 783.713 727.68L815.306 752.571L833.291 725.813L799.62 698.776L822.788 668.895C830.52 678.456 837.393 687.013 846.011 697.772Z" fill="#CE4C16" fill-opacity="0.3"/>
<path d="M892.317 715.305C911.273 739.638 926.625 764.668 933.886 793.963C934.939 798.144 935.66 804.862 933.387 807.008C913.074 826.157 912.409 851.606 910.802 876.469C908.807 906.879 909.25 906.906 878.683 904.983C877.367 904.773 876.077 904.427 874.831 903.952C873.612 886.252 874.388 868.385 870.646 851.522C867.46 837.195 858.813 824.123 853.16 810.27C851.275 805.615 849.474 799.872 850.388 795.273C857.289 765.282 873.417 740.112 892.317 715.305ZM892.068 823.091C913.102 804.89 912.908 786.131 892.068 769.964C871.201 788.36 870.979 805.893 892.068 823.202V823.091Z" fill="#CE4C16" fill-opacity="0.3"/>
<path d="M728.344 806.479C746.357 807.621 763.954 809.266 781.579 809.656C801.56 809.962 821.264 810.046 838.03 823.37C841.882 826.436 846.011 829.139 850.972 832.679C820.488 832.679 793.663 833.627 766.865 832.373C758.663 832.178 750.685 829.639 743.864 825.054C737.043 820.469 731.66 814.026 728.344 806.479Z" fill="#CE4C16" fill-opacity="0.3"/>
<path d="M936.714 832.93C952.898 811.189 976.814 809.349 1001.53 808.875C1019.55 808.513 1037.56 807.092 1055.71 806.088C1048.95 822.199 1034.21 830.617 1015.69 832.373C1002 833.683 988.149 832.818 974.375 832.874C962.043 832.958 949.711 832.93 936.714 832.93Z" fill="#CE4C16" fill-opacity="0.3"/>
<path d="M755.862 860.999C769.719 858.212 782.688 856.093 795.464 853.055C819.768 847.285 842.575 847.76 859.702 864.651C843.989 866.546 827.001 868.079 810.179 870.755C790.614 873.877 771.16 878.141 755.862 860.999Z" fill="#CE4C16" fill-opacity="0.3"/>
<path d="M1029.16 859.94C1014.53 876.413 996.74 873.236 978.727 870.42C961.184 867.633 943.504 865.766 925.906 863.508C936.576 853.669 950.183 847.536 966.256 849.571C987.179 852.47 1007.94 856.428 1029.16 859.94Z" fill="#CE4C16" fill-opacity="0.3"/>
<path d="M55.6805 16.5173C46.3629 21.9382 37.1672 26.747 29.9507 15.4459C23.6171 5.52291 27.6362 -3.66541 35.7053 -10.2501C46.0582 -18.7336 55.0108 -12.8531 62.0447 -4.67588C77.0564 12.7505 78.0916 33.975 73.3719 54.6784C66.8997 84.8103 51.8931 112.413 30.164 134.154C-8.87247 172.927 -56.7703 165.852 -82.2872 117.646C-114.777 121.872 -123.181 116.604 -121.872 96.2072C-109.692 94.9209 -96.02 96.9421 -86.8546 91.4906C-80.0948 87.4479 -79.0592 73.6968 -75.1007 63.3145C-110.24 62.9163 -121.232 48.522 -111.64 25.0928C-103.784 29.6255 -95.7153 38.1092 -87.4939 38.2623C-64.7176 38.6911 -56.2832 19.3661 -45.0473 1.02095C-61.7946 3.62419 -78.0848 6.74814 -87.2806 -8.87131C-90.5387 -14.3534 -87.798 -23.4192 -87.798 -29.1463C-75.3136 -24.0011 -65.4482 -16.8954 -55.3999 -16.4972C-36.9473 -15.946 -19.6522 -22.2859 -9.20793 -35.149C-21.7228 -43.5406 -34.9375 -50.8911 -46.0821 -60.6609C-49.9796 -64.0298 -48.7617 -73.3098 -48.3963 -80.6907C-22.1487 -59.436 3.82482 -43.9385 39.0551 -65.5301C15.5784 -70.9509 -2.47825 -79.8327 -0.529487 -106.998C9.61025 -100.23 18.3794 -91.2568 28.8237 -88.3166C39.2679 -85.3765 53.184 -85.2537 61.4054 -90.307C72.4586 -97.2286 68.4088 -111.072 63.6891 -122.373C62.3493 -125.435 61.6488 -128.927 60.4003 -133L107.901 -133C105.739 -126.201 103.334 -120.137 101.811 -113.859C97.0917 -93.7983 107.902 -80.9964 127.907 -84.7328C137.864 -86.601 147.121 -93.0329 156.286 -98.1169C160.492 -101.083 164.38 -104.481 167.888 -108.254C170.019 -83.9065 162.985 -76.1886 130.282 -65.3775C159.788 -47.798 179.002 -51.32 214.141 -80.6907C223.062 -59.8035 209.482 -45.1947 175.561 -39.2838C193.831 -12.7001 235.303 -8.13666 254.973 -31.5046C255.521 -24.338 258.902 -15.7016 256.131 -10.2807C247.27 6.96193 230.461 3.74609 213.744 1.14285C223.854 20.4987 233.781 38.8752 256.831 38.5383C264.535 38.5383 272.056 29.0131 280.033 23.6229C284.205 31.7389 285.727 44.3266 276.988 53.0551C270.107 59.8848 258.719 62.0282 245.321 67.9085C247.3 73.2375 248.183 86.9886 255.095 91.5826C263.56 97.2178 277.08 95.1663 289.625 96.5751C292.518 116.421 278.572 125.578 250.619 116.268C242.093 135.899 229.304 151.58 207.198 156.756C171.481 165.117 146.299 147.935 126.354 121.076C106.409 94.2168 89.4795 63.9885 93.5902 28.3394C95.0213 16.0889 101.751 3.5319 108.815 -7.06482C114.113 -15.0277 125.654 -18.0902 132.505 -9.30047C137.225 -3.1752 140.27 8.03444 137.925 14.8335C134.058 25.8284 123.735 23.4697 114.966 18.2019C114.266 17.8038 113.048 18.2021 112.104 18.3859C104.491 60.4971 138.26 119.055 177.571 131.918C184.106 134.116 191.184 134.056 197.683 131.748C204.181 129.44 209.726 125.015 213.44 119.177C224.037 103.649 224.706 86.1316 220.626 69.134C217.033 54.1271 209.786 40.039 204.153 25.5221L200.194 26.8388C202.387 35.5673 205.097 44.2041 206.62 53.0245C209.939 72.2885 201.351 87.632 185.578 91.8278C166.913 96.8199 146.969 86.7743 142.553 67.8778C140.726 60.0068 143.193 50.0838 146.695 42.4884C148.217 39.2114 160.915 36.7314 162.346 38.6302C167.065 44.7555 169.044 53.2383 171.846 60.8949C172.293 63.1834 172.478 65.5163 172.394 67.8472C185.609 63.2226 189.293 53.1471 185.7 42.4279C181.543 28.8406 175.252 16.0091 167.066 4.42008C148.217 -20.4792 125.471 -41.7948 97.1838 -55.7298C90.7893 -58.7924 80.6188 -60.4158 74.7725 -57.4757C37.9197 -39.6885 7.56071 -10.6961 -12.0091 25.3994C-15.2812 31.1655 -17.431 37.5055 -18.3429 44.0811C-19.4086 53.9427 -17.5506 63.3757 -4.79217 67.0508C-4.36587 61.4156 -5.40185 55.6884 -3.23992 51.7376C-0.194967 46.2555 5.0424 38.6606 9.73167 38.3543C14.9385 37.9868 22.8866 43.6218 25.6575 48.7976C33.209 62.9776 21.7293 84.447 4.86014 90.4498C-14.2622 97.2488 -35.3033 88.5817 -37.3434 70.6959C-38.7746 58.1697 -34.9073 44.9083 -32.654 32.1371C-31.8319 27.4819 -28.7867 23.2248 -27.8428 18.3859C-46.7215 42.5807 -58.8101 69.1947 -53.0247 100.801C-47.4524 131.091 -23.1535 141.442 2.63739 125.302C39.7555 102.332 62.8057 56.0866 55.6805 16.5173Z" fill="white" fill-opacity="0.05"/>
<path d="M17.4945 319.106C54.2777 284.835 70.2032 241.59 83.3271 194.119C90.1782 213.598 94.4713 231.851 102.815 248.022C113.849 269.7 126.834 290.316 141.607 309.612C149.007 319.198 149.616 325.629 140.237 329.825C124.069 337.053 117.735 350.804 109.544 364.831C92.9183 393.405 74.923 393.314 58.2975 364.617C50.1674 350.559 43.7117 336.41 27.4821 329.856C23.7672 328.355 21.4834 323.485 17.4945 319.106ZM84.4838 283.304C67.3406 298.433 64.4173 312.521 74.4657 325.843C80.5557 333.959 86.3715 333.991 92.7355 326.395C103.241 314.145 100.653 299.811 84.5143 283.273L84.4838 283.304Z" fill="white" fill-opacity="0.05"/>
<path d="M-34.6953 240.396C-39.75 219.877 -44.3175 201.348 -49.3113 181.134C-11.0056 178.592 18.8652 159.696 50.1675 135.991C49.6498 143.311 50.8987 151.304 48.341 157.767C33.0248 196.325 3.42765 220.704 -34.6953 240.396Z" fill="white" fill-opacity="0.05"/>
<path d="M217.063 181.103C211.978 201.715 207.411 220.275 202.508 240.212C163.929 220.979 134.179 195.559 118.589 156.205C116.305 150.477 118.255 143.035 118.255 132.469C148.461 158.777 177.723 178.898 217.063 181.103Z" fill="white" fill-opacity="0.05"/>
<path d="M108.813 163.831C131.925 200.828 152.783 236.599 188.287 262.264L166.059 299.628C159.969 293.748 154.214 289.614 150.103 284.315C126.809 253.965 114.843 218.345 105.312 181.9C103.942 176.449 107.534 169.803 108.813 163.831Z" fill="white" fill-opacity="0.05"/>
<path d="M58.5722 159.818C60.3992 170.14 63.8094 177.153 62.2869 182.85C52.878 218.254 40.9724 252.739 19.1096 282.722C14.6335 288.848 11.01 295.494 6.92973 301.895L0.656926 297.79L-19.1658 264.683C-4.39774 248.206 10.5836 233.75 22.8548 217.274C35.126 200.797 44.9308 182.206 58.5722 159.818Z" fill="white" fill-opacity="0.05"/>
<path d="M1471.32 907.683C1480.64 902.262 1489.83 897.454 1497.05 908.755C1503.38 918.678 1499.36 927.866 1491.29 934.451C1480.94 942.934 1471.99 937.054 1464.96 928.877C1449.94 911.45 1448.91 890.226 1453.63 869.522C1460.1 839.39 1475.11 811.788 1496.84 790.047C1535.87 751.274 1583.77 758.349 1609.29 806.555C1641.78 802.329 1650.18 807.596 1648.87 827.993C1636.69 829.28 1623.02 827.259 1613.85 832.71C1607.09 836.753 1606.06 850.504 1602.1 860.886C1637.24 861.284 1648.23 875.679 1638.64 899.108C1630.78 894.575 1622.72 886.091 1614.49 885.938C1591.72 885.51 1583.28 904.835 1572.05 923.18C1588.79 920.576 1605.08 917.453 1614.28 933.072C1617.54 938.554 1614.8 947.62 1614.8 953.347C1602.31 948.202 1592.45 941.096 1582.4 940.698C1563.95 940.147 1546.65 946.487 1536.21 959.35C1548.72 967.741 1561.94 975.092 1573.08 984.862C1576.98 988.23 1575.76 997.51 1575.4 1004.89C1549.15 983.637 1523.18 968.139 1487.94 989.731C1511.42 995.152 1529.48 1004.03 1527.53 1031.2C1517.39 1024.43 1508.62 1015.46 1498.18 1012.52C1487.73 1009.58 1473.82 1009.45 1465.59 1014.51C1454.54 1021.43 1458.59 1035.27 1463.31 1046.57C1464.65 1049.64 1465.35 1053.13 1466.6 1057.2H1419.1C1421.26 1050.4 1423.67 1044.34 1425.19 1038.06C1429.91 1018 1419.1 1005.2 1399.09 1008.93C1389.14 1010.8 1379.88 1017.23 1370.71 1022.32C1366.51 1025.28 1362.62 1028.68 1359.11 1032.46C1356.98 1008.11 1364.01 1000.39 1396.72 989.578C1367.21 971.999 1348 975.521 1312.86 1004.89C1303.94 984.004 1317.52 969.395 1351.44 963.484C1333.17 936.901 1291.7 932.337 1272.03 955.705C1271.48 948.539 1268.1 939.902 1270.87 934.481C1279.73 917.239 1296.54 920.455 1313.26 923.058C1303.15 903.702 1293.22 885.326 1270.17 885.662C1262.47 885.662 1254.94 895.188 1246.97 900.578C1242.8 892.462 1241.27 879.874 1250.01 871.146C1256.89 864.316 1268.28 862.172 1281.68 856.292C1279.7 850.963 1278.82 837.212 1271.9 832.618C1263.44 826.983 1249.92 829.034 1237.37 827.626C1234.48 807.78 1248.43 798.623 1276.38 807.933C1284.91 788.302 1297.7 772.621 1319.8 767.445C1355.52 759.084 1380.7 776.265 1400.65 803.125C1420.59 829.984 1437.52 860.212 1433.41 895.861C1431.98 908.112 1425.25 920.669 1418.19 931.265C1412.89 939.228 1401.35 942.291 1394.5 933.501C1389.78 927.376 1386.73 916.166 1389.07 909.367C1392.94 898.372 1403.26 900.731 1412.03 905.999C1412.73 906.397 1413.95 905.999 1414.9 905.815C1422.51 863.704 1388.74 805.146 1349.43 792.283C1342.89 790.085 1335.82 790.144 1329.32 792.452C1322.82 794.76 1317.27 799.185 1313.56 805.024C1302.96 820.551 1302.29 838.069 1306.37 855.067C1309.97 870.074 1317.21 884.162 1322.85 898.679L1326.81 897.362C1324.61 888.633 1321.9 879.997 1320.38 871.176C1317.06 851.912 1325.65 836.569 1341.42 832.373C1360.09 827.381 1380.03 837.426 1384.45 856.323C1386.27 864.194 1383.81 874.117 1380.31 881.712C1378.78 884.989 1366.09 887.469 1364.65 885.57C1359.93 879.445 1357.96 870.962 1355.15 863.306C1354.71 861.017 1354.52 858.684 1354.61 856.354C1341.39 860.978 1337.71 871.054 1341.3 881.773C1345.46 895.36 1351.75 908.192 1359.93 919.781C1378.78 944.68 1401.53 965.995 1429.82 979.93C1436.21 982.993 1446.38 984.616 1452.23 981.676C1489.08 963.889 1519.44 934.897 1539.01 898.801C1542.28 893.035 1544.43 886.695 1545.34 880.12C1546.41 870.258 1544.55 860.825 1531.79 857.15C1531.37 862.785 1532.4 868.512 1530.24 872.463C1527.19 877.945 1521.96 885.54 1517.27 885.846C1512.06 886.214 1504.11 880.579 1501.34 875.403C1493.79 861.223 1505.27 839.754 1522.14 833.751C1541.26 826.952 1562.3 835.619 1564.34 853.505C1565.77 866.031 1561.91 879.292 1559.65 892.064C1558.83 896.719 1555.79 900.976 1554.84 905.815C1573.72 881.62 1585.81 855.006 1580.02 823.4C1574.45 793.11 1550.15 782.758 1524.36 798.898C1487.24 821.868 1464.19 868.114 1471.32 907.683Z" fill="white" fill-opacity="0.05"/>
<path d="M1509.51 605.095C1472.72 639.366 1456.8 682.61 1443.67 730.081C1436.82 710.603 1432.53 692.349 1424.19 676.179C1413.15 654.501 1400.17 633.884 1385.39 614.589C1377.99 605.003 1377.38 598.571 1386.76 594.376C1402.93 587.148 1409.27 573.397 1417.46 559.37C1434.08 530.796 1452.08 530.887 1468.7 559.584C1476.83 573.641 1483.29 587.791 1499.52 594.345C1503.23 595.846 1505.52 600.715 1509.51 605.095ZM1442.52 640.897C1459.66 625.768 1462.58 611.68 1452.53 598.357C1446.44 590.241 1440.63 590.21 1434.26 597.805C1423.76 610.056 1426.35 624.389 1442.49 640.928L1442.52 640.897Z" fill="white" fill-opacity="0.05"/>
<path d="M1561.7 683.804C1566.75 704.324 1571.32 722.853 1576.31 743.066C1538.01 745.608 1508.13 764.505 1476.83 788.21C1477.35 780.89 1476.1 772.896 1478.66 766.434C1493.98 727.875 1523.57 703.497 1561.7 683.804Z" fill="white" fill-opacity="0.05"/>
<path d="M1309.94 743.097C1315.02 722.486 1319.59 703.926 1324.49 683.988C1363.07 703.221 1392.82 728.641 1408.41 767.996C1410.69 773.723 1408.75 781.165 1408.75 791.731C1378.54 765.423 1349.28 745.302 1309.94 743.097Z" fill="white" fill-opacity="0.05"/>
<path d="M1418.19 760.37C1395.08 723.373 1374.22 687.602 1338.71 661.937L1360.94 624.572C1367.03 630.453 1372.79 634.587 1376.9 639.885C1400.19 670.236 1412.16 705.855 1421.69 742.301C1423.06 747.752 1419.47 754.398 1418.19 760.37Z" fill="white" fill-opacity="0.05"/>
<path d="M1468.43 764.382C1466.6 754.061 1463.19 747.047 1464.71 741.351C1474.12 705.947 1486.03 671.461 1507.89 641.478C1512.37 635.353 1515.99 628.707 1520.07 622.306L1526.34 626.41L1546.17 659.517C1531.4 675.994 1516.42 690.45 1504.15 706.927C1491.87 723.404 1482.07 741.994 1468.43 764.382Z" fill="white" fill-opacity="0.05"/>
</g>
</svg>
