<svg width="288" height="122" viewBox="0 0 288 122" fill="none" xmlns="http://www.w3.org/2000/svg">
<g filter="url(#filter0_d_4_34)">
<g clip-path="url(#clip0_4_34)">
<path d="M259.369 104.797C258.895 105.056 258.373 105.215 257.834 105.264C256.966 105.264 256.528 104.732 256.528 103.66V89.8646C256.528 87.1108 255.566 84.9631 253.642 83.4216C251.718 81.8801 248.936 81.1115 245.297 81.1159C241.853 81.0692 238.473 82.0413 235.587 83.9087V90.2543C236.583 89.3411 237.707 88.5755 238.923 87.9811C240.525 87.2128 242.278 86.809 244.056 86.799C247.412 86.799 249.091 88.1781 249.091 90.9363V92.2353L243.05 93.9889C239.411 95.0325 236.862 96.26 235.404 97.6716C233.947 99.0745 233.223 101.004 233.223 103.439C233.214 104.367 233.405 105.286 233.784 106.134C234.162 106.982 234.719 107.74 235.417 108.356C236.832 109.705 238.727 110.442 240.686 110.408C243.56 110.408 246.422 109.402 249.273 107.388C249.434 108.335 249.965 109.18 250.749 109.739C251.698 110.231 252.764 110.455 253.831 110.389C256.008 110.389 258.402 109.594 261.014 108.005V103.718C260.519 104.153 259.962 104.514 259.362 104.79L259.369 104.797ZM249.084 103.491C247.443 104.976 245.804 105.721 244.167 105.725C243.717 105.736 243.27 105.659 242.851 105.497C242.432 105.336 242.049 105.093 241.725 104.784C241.395 104.465 241.136 104.08 240.966 103.654C240.797 103.229 240.719 102.773 240.739 102.316C240.715 101.454 241.013 100.614 241.574 99.9578C242.321 99.1702 243.206 98.5252 244.186 98.0548C245.766 97.2683 247.403 96.6017 249.084 96.0608V103.491Z" fill="white"/>
<path d="M124.237 11.665C128.12 11.665 131.287 12.6718 133.738 14.6852C134.896 15.5742 135.83 16.7188 136.467 18.0286C137.104 19.3384 137.426 20.7775 137.408 22.2324C137.443 24.0495 136.907 25.8321 135.874 27.3309C134.748 28.8865 133.211 30.1007 131.433 30.8382V31.1955C134.112 31.706 136.542 33.0939 138.335 35.1379C139.975 37.0623 140.854 39.5138 140.81 42.0356C140.844 44.2568 140.214 46.438 139.001 48.3033C137.785 50.1525 136.041 51.5978 133.993 52.4536C131.601 53.4253 129.034 53.8962 126.451 53.837H108.696V11.665H124.237ZM122.056 29.2015C123.893 29.303 125.708 28.7581 127.182 27.6622C127.807 27.141 128.303 26.4826 128.629 25.7388C128.955 24.995 129.104 24.186 129.063 23.3755C129.097 22.637 128.959 21.9006 128.659 21.2244C128.359 20.5481 127.904 19.9504 127.332 19.4785C126.032 18.4676 124.409 17.9578 122.761 18.0431H116.884V29.2015H122.056ZM123.963 47.4914C126.74 47.4914 128.834 46.974 130.245 45.9391C130.948 45.4138 131.51 44.7241 131.882 43.931C132.253 43.138 132.422 42.2661 132.373 41.3926C132.401 40.5674 132.223 39.7482 131.855 39.0082C131.487 38.2681 130.94 37.6302 130.264 37.1514C128.86 36.1122 126.999 35.5926 124.603 35.5926H116.884V47.5174L123.963 47.4914Z" fill="white"/>
<path d="M180.473 25.6553H173.01V53.8565H180.473V25.6553Z" fill="white"/>
<path d="M206.763 26.2917V11.665H214.181V53.8824H201.121C196.585 53.8824 192.957 52.5834 190.236 49.9854C187.515 47.3875 186.137 43.8347 186.102 39.3272C186.071 36.7882 186.725 34.2873 187.996 32.0853C189.236 29.9378 191.042 28.1681 193.22 26.9672C195.41 25.7349 197.886 25.0945 200.403 25.1097C202.568 25.144 204.712 25.5437 206.744 26.2917H206.763ZM202.826 48.1733H206.744V31.845C205.265 31.0721 203.621 30.6665 201.95 30.6629C200.848 30.6119 199.746 30.7932 198.719 31.195C197.692 31.5969 196.761 32.2101 195.989 32.9946C195.231 33.8136 194.644 34.7734 194.261 35.819C193.877 36.8645 193.706 37.9751 193.755 39.0869C193.755 45.1488 196.781 48.1798 202.832 48.1798" fill="white"/>
<path d="M247.83 25.6551V30.9096H242.979C243.664 31.7096 244.221 32.61 244.631 33.579C244.949 34.424 245.109 35.3201 245.101 36.2225C245.079 38.5331 244.165 40.7469 242.548 42.4057C241.054 44.0338 238.486 45.0925 234.842 45.5817C233.503 45.6719 232.184 45.9518 230.924 46.4131C230.637 46.5264 230.392 46.7237 230.221 46.9789C230.049 47.2341 229.96 47.5351 229.964 47.842C229.964 48.4266 230.356 48.8747 231.133 49.1865C232.35 49.6063 233.605 49.9044 234.881 50.0763C239.152 50.7647 242.295 51.8126 244.311 53.2199C245.251 53.8169 246.023 54.6438 246.551 55.6216C247.079 56.5995 247.347 57.6957 247.328 58.8055C247.379 60.1701 247.066 61.5239 246.422 62.7296C245.777 63.9353 244.824 64.95 243.658 65.6707C241.202 67.2685 237.681 68.0674 233.092 68.0674C228.739 68.0674 225.278 67.3139 222.709 65.8071C220.141 64.3003 218.857 62.2782 218.857 59.7408C218.857 56.1556 221.336 53.6788 226.294 52.3105C224.146 51.3882 223.075 50.1672 223.075 48.6604C223.075 46.6945 224.695 45.3349 227.933 44.5815V44.4581C225.88 43.948 224.037 42.8127 222.664 41.2106C221.37 39.6943 220.674 37.7626 220.705 35.7743C220.662 34.3654 220.952 32.9663 221.552 31.6893C222.152 30.4124 223.045 29.2933 224.159 28.422C226.471 26.5644 229.488 25.6335 233.21 25.6292L247.83 25.6551ZM225.831 59.4291C225.831 61.9491 228.36 63.2091 233.419 63.2091C235.193 63.2966 236.961 62.9369 238.558 62.1634C239.803 61.4706 240.425 60.5592 240.425 59.4291C240.425 58.182 239.72 57.2467 238.316 56.6102C236.416 55.8883 234.386 55.5633 232.354 55.6555C230.717 55.5903 229.092 55.9602 227.646 56.7271C226.432 57.4416 225.831 58.3444 225.831 59.4291ZM227.614 35.8847C227.597 36.5721 227.729 37.255 227.999 37.8878C228.269 38.5206 228.672 39.0888 229.181 39.5544C230.206 40.5216 231.575 41.0468 232.988 41.0158C233.692 41.0394 234.393 40.9164 235.046 40.6546C235.7 40.3929 236.291 39.9982 236.782 39.4959C237.276 38.9854 237.662 38.3815 237.918 37.72C238.174 37.0585 238.293 36.3528 238.27 35.6444C238.282 34.9863 238.149 34.3336 237.882 33.7314C237.615 33.1292 237.219 32.5919 236.723 32.1566C235.706 31.2275 234.368 30.7249 232.988 30.7537C232.282 30.7393 231.581 30.867 230.927 31.1294C230.273 31.3917 229.679 31.7831 229.181 32.28C228.683 32.74 228.286 33.298 228.016 33.9186C227.746 34.5391 227.609 35.2087 227.614 35.8847Z" fill="white"/>
<path d="M264.828 25.1162C268.999 25.1162 272.296 26.4434 274.721 29.0976C277.146 31.7519 278.36 35.4324 278.365 40.1391V41.2628H258.305C258.463 43.4889 259.478 45.5687 261.138 47.0693C262.732 48.4267 264.906 49.1087 267.668 49.1087C269.426 49.114 271.169 48.8015 272.814 48.1864C274.632 47.4773 276.35 46.5386 277.927 45.3936V50.9208C274.61 53.2547 270.583 54.4216 265.847 54.4216C261.372 54.4216 257.719 53.0836 254.889 50.4077C252.06 47.7318 250.645 44.1682 250.645 39.717C250.645 35.4303 251.951 31.9295 254.563 29.2145C257.175 26.4996 260.59 25.1422 264.808 25.1422L264.828 25.1162ZM271.338 36.7617C271.252 34.9973 270.592 33.3084 269.458 31.949C268.905 31.3613 268.231 30.901 267.48 30.6003C266.73 30.2996 265.923 30.1658 265.115 30.2083C264.287 30.1718 263.459 30.3 262.681 30.5855C261.903 30.871 261.19 31.308 260.584 31.871C259.331 33.2147 258.566 34.9361 258.409 36.7617H271.338Z" fill="white"/>
<path d="M124.237 67.6777C128.12 67.6777 131.287 68.6845 133.738 70.6979C134.895 71.5876 135.829 72.7323 136.466 74.0419C137.103 75.3516 137.425 76.7904 137.408 78.2451C137.443 80.0622 136.907 81.8448 135.874 83.3436C134.748 84.8992 133.211 86.1134 131.433 86.8509V87.2082C134.112 87.7187 136.542 89.1066 138.335 91.1506C139.975 93.0749 140.854 95.5265 140.81 98.0483C140.844 100.27 140.215 102.451 139.001 104.316C137.785 106.165 136.041 107.61 133.993 108.466C131.602 109.44 129.034 109.913 126.451 109.856H108.696V67.6777H124.237ZM122.056 85.2142C123.893 85.3157 125.708 84.7708 127.182 83.6749C127.807 83.1536 128.303 82.4952 128.629 81.7514C128.955 81.0076 129.104 80.1987 129.063 79.3882C129.097 78.6497 128.959 77.9133 128.659 77.2371C128.359 76.5608 127.904 75.9631 127.332 75.4912C126.031 74.4829 124.409 73.9735 122.761 74.0558H116.884V85.1882L122.056 85.2142ZM123.963 103.511C126.74 103.511 128.834 102.991 130.245 101.952C130.948 101.427 131.511 100.737 131.882 99.9441C132.254 99.151 132.422 98.2789 132.373 97.4053C132.401 96.5801 132.223 95.761 131.855 95.0209C131.487 94.2808 130.94 93.6429 130.264 93.164C128.86 92.1313 126.999 91.6118 124.603 91.6118H116.884V103.537L123.963 103.511Z" fill="white"/>
<path d="M154.255 67.6777V85.6104H154.438C156.841 82.6097 159.745 81.1115 163.149 81.1159C164.505 81.0595 165.857 81.2944 167.114 81.8043C168.37 82.3143 169.501 83.0874 170.43 84.0711C172.272 86.0456 173.192 88.6219 173.192 91.8001V109.856H165.761V93.216C165.843 91.6019 165.366 90.0086 164.41 88.702C163.969 88.1549 163.406 87.7182 162.765 87.4272C162.125 87.1361 161.424 86.9988 160.72 87.0263C159.581 87.0286 158.468 87.3652 157.52 87.994C156.265 88.8785 155.162 89.96 154.255 91.1961V109.856H146.792V67.6777H154.255Z" fill="white"/>
<path d="M272.298 74.1663H272.906V81.655H282.622V87.2731H272.886V100.263C272.849 100.834 272.936 101.407 273.14 101.942C273.344 102.477 273.66 102.963 274.068 103.367C274.477 103.77 274.967 104.082 275.506 104.282C276.046 104.481 276.622 104.564 277.196 104.524C278.937 104.524 280.942 103.898 283.21 102.647V108.596C280.833 109.708 278.248 110.314 275.622 110.376C272.422 110.376 269.928 109.51 268.139 107.778C266.349 106.046 265.453 103.701 265.448 100.744V87.2731H261.021V86.0651L272.298 74.1663Z" fill="white"/>
<path d="M231.753 83.1099C231.07 82.5902 230.34 82.1337 229.573 81.7459C228.654 81.3214 227.654 81.0998 226.641 81.0964C224.956 81.1127 223.341 81.7651 222.122 82.9215C220.746 84.1382 219.379 86.1041 218.021 88.819H217.897V81.655H210.44V109.856H217.897V96.9897C217.914 95.5222 218.263 94.0774 218.916 92.7614C219.534 91.4343 220.461 90.2723 221.619 89.3711C222.578 88.5682 223.781 88.1105 225.034 88.0721C226.086 88.0721 227.418 88.6111 229.004 89.6308L231.753 83.1099Z" fill="white"/>
<path d="M204.68 104.797C204.208 105.055 203.688 105.214 203.152 105.264C202.284 105.264 201.846 104.732 201.846 103.66V89.8645C201.909 88.6411 201.681 87.42 201.181 86.3006C200.68 85.1811 199.922 84.1948 198.966 83.4215C197.042 81.88 194.258 81.1115 190.614 81.1158C186.996 81.0607 183.452 82.1352 180.48 84.1879V90.6375C181.577 89.5477 182.848 88.6457 184.241 87.968C185.842 87.1997 187.596 86.7959 189.374 86.7859C192.73 86.7859 194.408 88.165 194.408 90.9232V92.2222L188.368 93.9758C184.733 95.0194 182.184 96.2469 180.722 97.6585C179.265 99.0614 178.534 100.99 178.534 103.426C178.526 104.354 178.719 105.274 179.098 106.122C179.478 106.97 180.036 107.727 180.735 108.343C182.15 109.691 184.044 110.429 186.004 110.395C188.878 110.395 191.74 109.388 194.591 107.375C194.673 107.847 194.848 108.298 195.106 108.703C195.363 109.107 195.699 109.457 196.093 109.733C197.042 110.224 198.108 110.449 199.175 110.382C201.352 110.382 203.746 109.588 206.358 107.999V103.712C205.861 104.148 205.303 104.509 204.7 104.783L204.68 104.797ZM194.428 103.485C192.791 104.97 191.152 105.714 189.511 105.719C189.062 105.729 188.615 105.652 188.195 105.49C187.776 105.328 187.393 105.086 187.069 104.777C186.739 104.458 186.48 104.073 186.31 103.648C186.141 103.222 186.063 102.766 186.083 102.309C186.059 101.447 186.357 100.608 186.918 99.9512C187.665 99.1636 188.55 98.5186 189.53 98.0482C191.11 97.2617 192.747 96.5951 194.428 96.0542V103.485Z" fill="white"/>
<path d="M176.617 11.5139L171.485 16.6145L176.614 21.7187L181.745 16.6181L176.617 11.5139Z" fill="white"/>
<path d="M168.105 27.136C167.422 26.6163 166.692 26.1598 165.925 25.7721C165.007 25.3445 164.006 25.1228 162.993 25.1226C161.308 25.1402 159.693 25.7924 158.474 26.9476C157.094 28.1644 155.727 30.1302 154.373 32.8451H154.255V25.6552H146.792V53.8824H154.255V41.0223C154.27 39.5553 154.616 38.1103 155.268 36.7941C155.884 35.4657 156.811 34.3033 157.971 33.4037C158.93 32.6008 160.133 32.1431 161.386 32.1047C162.437 32.1047 163.77 32.6373 165.356 33.6635L168.105 27.136Z" fill="white"/>
<path d="M75.791 64.0925C73.1138 57.0969 68.3705 51.0709 62.1851 46.8071C55.9997 42.5433 48.6618 40.2414 41.1362 40.204H36.0232V23.9665C36.0232 13.0354 31.3477 0 9.08035 0H4.06535V50.1673H26.0453V62.0596H4.06535V77.102C4.04924 82.5169 5.23149 87.8691 7.52804 92.7787C9.82459 97.6884 13.1792 102.035 17.354 105.511C21.5288 108.986 26.4214 111.506 31.6848 112.89C36.9481 114.274 42.4532 114.489 47.8095 113.52C53.1658 112.551 58.242 110.421 62.678 107.282C67.1141 104.143 70.8012 100.071 73.4779 95.3556C76.1546 90.6403 77.7552 85.3969 78.1662 79.9973C78.5773 74.5978 77.7886 69.1744 75.8562 64.112L75.791 64.0925ZM36.0689 72.0489H41.1362C42.1449 72.0489 43.131 72.3464 43.9696 72.9037C44.8083 73.4611 45.462 74.2534 45.848 75.1802C46.234 76.1071 46.3349 77.1271 46.1381 78.1111C45.9413 79.095 45.4556 79.9989 44.7424 80.7083C44.0291 81.4177 43.1205 81.9008 42.1312 82.0966C41.1419 82.2923 40.1164 82.1918 39.1845 81.8079C38.2526 81.424 37.4561 80.7738 36.8957 79.9396C36.3353 79.1055 36.0362 78.1247 36.0362 77.1214L36.0689 72.0489ZM14.089 10.2751C23.8317 11.5156 25.9997 16.6921 25.9997 23.9925L26.0388 40.2299H14.089V10.2751ZM41.1362 104.037C33.9568 104.028 27.074 101.188 21.9974 96.1382C16.9208 91.0888 14.0649 84.2429 14.0563 77.102V72.0294H26.0128V77.102C26.0128 80.0771 26.8997 82.9854 28.5615 85.4591C30.2233 87.9328 32.5852 89.8608 35.3486 90.9993C38.1121 92.1378 41.153 92.4357 44.0867 91.8553C47.0203 91.2749 49.7151 89.8422 51.8302 87.7385C53.9453 85.6348 55.3856 82.9545 55.9692 80.0366C56.5527 77.1186 56.2531 74.0941 55.1084 71.3455C53.9638 68.5969 52.0254 66.2476 49.5383 64.5947C47.0513 62.9418 44.1273 62.0596 41.1362 62.0596H36.0362V50.1673H41.1362C48.3182 50.1673 55.2061 53.005 60.2846 58.0562C65.3631 63.1075 68.2161 69.9584 68.2161 77.102C68.2161 84.2455 65.3631 91.0964 60.2846 96.1477C55.2061 101.199 48.3182 104.037 41.1362 104.037Z" fill="white"/>
</g>
</g>
<defs>
<filter id="filter0_d_4_34" x="0" y="0" width="287.203" height="122" filterUnits="userSpaceOnUse" color-interpolation-filters="sRGB">
<feFlood flood-opacity="0" result="BackgroundImageFix"/>
<feColorMatrix in="SourceAlpha" type="matrix" values="0 0 0 0 0 0 0 0 0 0 0 0 0 0 0 0 0 0 127 0" result="hardAlpha"/>
<feOffset dy="4"/>
<feGaussianBlur stdDeviation="2"/>
<feComposite in2="hardAlpha" operator="out"/>
<feColorMatrix type="matrix" values="0 0 0 0 0 0 0 0 0 0 0 0 0 0 0 0 0 0 0.25 0"/>
<feBlend mode="normal" in2="BackgroundImageFix" result="effect1_dropShadow_4_34"/>
<feBlend mode="normal" in="SourceGraphic" in2="effect1_dropShadow_4_34" result="shape"/>
</filter>
<clipPath id="clip0_4_34">
<rect width="279.203" height="114" fill="white" transform="translate(4)"/>
</clipPath>
</defs>
</svg>
