<svg width="139" height="57" viewBox="0 0 139 57" fill="none" xmlns="http://www.w3.org/2000/svg">
<g clip-path="url(#clip0_1_19)">
<path d="M127.134 52.3983C126.898 52.5281 126.638 52.6077 126.37 52.6321C125.938 52.6321 125.72 52.3658 125.72 51.83V44.9323C125.72 43.5554 125.241 42.4815 124.283 41.7108C123.325 40.9401 121.94 40.5558 120.128 40.5579C118.414 40.5346 116.731 41.0206 115.294 41.9544V45.1272C115.79 44.6706 116.35 44.2878 116.955 43.9905C117.753 43.6064 118.626 43.4045 119.511 43.3995C121.182 43.3995 122.017 44.089 122.017 45.4681V46.1176L119.01 46.9945C117.198 47.5162 115.929 48.13 115.203 48.8358C114.478 49.5372 114.117 50.5018 114.117 51.7196C114.113 52.1835 114.208 52.643 114.397 53.067C114.585 53.4911 114.862 53.8699 115.21 54.1779C115.914 54.8523 116.857 55.2211 117.833 55.2041C119.264 55.2041 120.689 54.7008 122.108 53.6941C122.188 54.1674 122.452 54.59 122.843 54.8696C123.315 55.1154 123.846 55.2277 124.377 55.1944C125.461 55.1944 126.653 54.7971 127.953 54.0026V51.8592C127.707 52.0767 127.43 52.2572 127.131 52.3951L127.134 52.3983ZM122.014 51.7456C121.197 52.4881 120.381 52.8605 119.566 52.8627C119.342 52.8682 119.12 52.8294 118.911 52.7486C118.702 52.6677 118.512 52.5465 118.35 52.3918C118.186 52.2323 118.057 52.0399 117.973 51.8272C117.888 51.6145 117.849 51.3864 117.859 51.1578C117.848 50.727 117.996 50.3072 118.275 49.9789C118.647 49.5851 119.088 49.2626 119.576 49.0274C120.362 48.6341 121.177 48.3009 122.014 48.0304V51.7456Z" fill="#193166"/>
<path d="M59.8594 5.83252C61.7926 5.83252 63.3693 6.33588 64.5895 7.3426C65.166 7.78709 65.6311 8.35938 65.9482 9.01429C66.2653 9.66919 66.4256 10.3888 66.4165 11.1162C66.4341 12.0247 66.167 12.9161 65.6526 13.6655C65.0925 14.4432 64.3271 15.0503 63.4419 15.4191V15.5977C64.7756 15.853 65.9853 16.547 66.8782 17.569C67.6942 18.5311 68.1321 19.7569 68.1102 21.0178C68.1269 22.1284 67.8136 23.219 67.2098 24.1516C66.6043 25.0762 65.7359 25.7989 64.7162 26.2268C63.5255 26.7126 62.2473 26.9481 60.9614 26.9185H52.1221V5.83252H59.8594ZM58.7735 14.6008C59.6883 14.6515 60.5917 14.379 61.3255 13.8311C61.6369 13.5705 61.8834 13.2413 62.0459 12.8694C62.2083 12.4975 62.2822 12.093 62.2618 11.6878C62.279 11.3185 62.2102 10.9503 62.0607 10.6122C61.9112 10.274 61.6851 9.97522 61.4003 9.73925C60.7532 9.23379 59.945 8.97891 59.1247 9.02156H56.1988V14.6008H58.7735ZM59.7229 23.7457C61.1056 23.7457 62.148 23.487 62.8502 22.9695C63.2004 22.7069 63.4803 22.362 63.6652 21.9655C63.85 21.569 63.9341 21.133 63.91 20.6963C63.9238 20.2837 63.8351 19.8741 63.6519 19.5041C63.4687 19.1341 63.1966 18.8151 62.86 18.5757C62.161 18.0561 61.2345 17.7963 60.0414 17.7963H56.1988V23.7587L59.7229 23.7457Z" fill="#193166"/>
<path d="M87.8564 12.8276H84.1406V26.9283H87.8564V12.8276Z" fill="#193166"/>
<path d="M100.945 13.1459V5.83252H104.638V26.9412H98.1358C95.8775 26.9412 94.0711 26.2917 92.7165 24.9927C91.362 23.6937 90.676 21.9174 90.6587 19.6636C90.643 18.3941 90.9685 17.1436 91.6014 16.0426C92.2188 14.9689 93.1181 14.0841 94.2021 13.4836C95.2925 12.8675 96.5254 12.5473 97.7781 12.5548C98.8563 12.572 99.9237 12.7719 100.935 13.1459H100.945ZM98.9843 24.0867H100.935V15.9225C100.199 15.536 99.3801 15.3332 98.5487 15.3314C97.9996 15.3059 97.4514 15.3966 96.9399 15.5975C96.4284 15.7984 95.9651 16.1051 95.5805 16.4973C95.2034 16.9068 94.9111 17.3867 94.7202 17.9095C94.5294 18.4323 94.4439 18.9876 94.4687 19.5434C94.4687 22.5744 95.975 24.0899 98.9876 24.0899" fill="#193166"/>
<path d="M121.39 12.8277V15.4549H118.974C119.316 15.8549 119.593 16.3051 119.797 16.7896C119.955 17.2121 120.035 17.6602 120.031 18.1114C120.02 19.2667 119.565 20.3736 118.76 21.203C118.016 22.017 116.738 22.5464 114.924 22.791C114.257 22.8361 113.6 22.976 112.973 23.2067C112.83 23.2633 112.708 23.362 112.623 23.4896C112.537 23.6172 112.493 23.7677 112.495 23.9211C112.495 24.2134 112.69 24.4375 113.077 24.5933C113.683 24.8033 114.308 24.9523 114.943 25.0383C117.069 25.3825 118.634 25.9064 119.637 26.61C120.106 26.9086 120.49 27.322 120.753 27.8109C121.016 28.2999 121.149 28.848 121.139 29.4029C121.165 30.0852 121.009 30.7621 120.688 31.3649C120.368 31.9678 119.893 32.4751 119.312 32.8355C118.09 33.6344 116.337 34.0338 114.052 34.0338C111.885 34.0338 110.162 33.6571 108.883 32.9037C107.605 32.1503 106.965 31.1392 106.965 29.8705C106.965 28.0779 108.2 26.8395 110.668 26.1554C109.599 25.6942 109.065 25.0837 109.065 24.3303C109.065 23.3474 109.872 22.6676 111.484 22.2909V22.2292C110.462 21.9741 109.544 21.4065 108.861 20.6054C108.217 19.8473 107.87 18.8814 107.885 17.8873C107.864 17.1828 108.009 16.4833 108.307 15.8448C108.606 15.2063 109.051 14.6468 109.605 14.2111C110.756 13.2823 112.258 12.8169 114.111 12.8147L121.39 12.8277ZM110.437 29.7147C110.437 30.9747 111.697 31.6047 114.215 31.6047C115.098 31.6484 115.978 31.4686 116.773 31.0818C117.393 30.7354 117.703 30.2797 117.703 29.7147C117.703 29.0911 117.352 28.6235 116.653 28.3052C115.707 27.9443 114.697 27.7818 113.685 27.8279C112.87 27.7952 112.061 27.9802 111.341 28.3637C110.736 28.7209 110.437 29.1723 110.437 29.7147ZM111.325 17.9425C111.317 18.2862 111.382 18.6276 111.517 18.944C111.651 19.2604 111.852 19.5445 112.105 19.7773C112.616 20.2609 113.297 20.5235 114 20.508C114.351 20.5198 114.7 20.4583 115.025 20.3274C115.35 20.1966 115.645 19.9992 115.889 19.7481C116.135 19.4928 116.328 19.1909 116.455 18.8601C116.582 18.5294 116.642 18.1765 116.63 17.8223C116.636 17.4933 116.57 17.1669 116.437 16.8658C116.304 16.5647 116.107 16.2961 115.86 16.0784C115.354 15.6139 114.688 15.3626 114 15.377C113.649 15.3698 113.3 15.4336 112.975 15.5648C112.649 15.696 112.353 15.8917 112.105 16.1401C111.857 16.3701 111.66 16.6491 111.525 16.9594C111.391 17.2697 111.323 17.6045 111.325 17.9425Z" fill="#193166"/>
<path d="M129.852 12.5581C131.928 12.5581 133.57 13.2217 134.777 14.5488C135.984 15.876 136.589 17.7162 136.591 20.0696V20.6314H126.604C126.683 21.7445 127.188 22.7843 128.015 23.5346C128.808 24.2134 129.891 24.5543 131.266 24.5543C132.141 24.557 133.009 24.4008 133.828 24.0932C134.733 23.7386 135.588 23.2693 136.373 22.6968V25.4604C134.722 26.6273 132.717 27.2108 130.359 27.2108C128.131 27.2108 126.313 26.5418 124.904 25.2038C123.495 23.8659 122.791 22.0841 122.791 19.8585C122.791 17.7151 123.441 15.9647 124.741 14.6073C126.042 13.2498 127.742 12.5711 129.842 12.5711L129.852 12.5581ZM133.093 18.3809C133.05 17.4986 132.721 16.6542 132.157 15.9745C131.882 15.6807 131.546 15.4505 131.172 15.3002C130.799 15.1498 130.397 15.0829 129.995 15.1041C129.582 15.0859 129.17 15.15 128.783 15.2927C128.396 15.4355 128.041 15.654 127.739 15.9355C127.115 16.6074 126.734 17.468 126.656 18.3809H133.093Z" fill="#193166"/>
<path d="M59.8594 33.8389C61.7926 33.8389 63.3693 34.3422 64.5895 35.349C65.1656 35.7938 65.6305 36.3661 65.9476 37.021C66.2646 37.6758 66.4251 38.3952 66.4165 39.1225C66.4341 40.0311 66.167 40.9224 65.6526 41.6718C65.0925 42.4496 64.3271 43.0567 63.4419 43.4255V43.6041C64.7756 43.8593 65.9853 44.5533 66.8782 45.5753C67.6942 46.5375 68.1321 47.7633 68.1102 49.0241C68.1273 50.1348 67.814 51.2255 67.2098 52.158C66.6043 53.0826 65.7359 53.8052 64.7162 54.2331C63.5257 54.7201 62.2475 54.9567 60.9614 54.9281H52.1221V33.8389H59.8594ZM58.7735 42.6071C59.6883 42.6578 60.5917 42.3854 61.3255 41.8374C61.6369 41.5768 61.8834 41.2476 62.0459 40.8757C62.2083 40.5038 62.2822 40.0993 62.2618 39.6941C62.279 39.3249 62.2102 38.9567 62.0607 38.6185C61.9112 38.2804 61.6851 37.9816 61.4003 37.7456C60.7525 37.2414 59.9448 36.9867 59.1247 37.0279H56.1988V42.5941L58.7735 42.6071ZM59.7229 51.7553C61.1056 51.7553 62.148 51.4955 62.8502 50.9759C63.2006 50.7135 63.4807 50.3686 63.6656 49.9721C63.8504 49.5755 63.9344 49.1394 63.91 48.7027C63.9238 48.2901 63.8351 47.8805 63.6519 47.5104C63.4687 47.1404 63.1966 46.8214 62.86 46.582C62.161 46.0657 61.2345 45.8059 60.0414 45.8059H56.1988V51.7683L59.7229 51.7553Z" fill="#193166"/>
<path d="M74.8039 33.8389V42.8052H74.8949C76.0913 41.3049 77.5369 40.5558 79.2317 40.5579C79.9067 40.5298 80.5798 40.6472 81.2053 40.9022C81.8308 41.1571 82.3939 41.5437 82.8565 42.0355C83.7732 43.0228 84.2316 44.311 84.2316 45.9001V54.9281H80.5321V46.608C80.5727 45.8009 80.3352 45.0043 79.8591 44.351C79.64 44.0774 79.3596 43.8591 79.0406 43.7136C78.7215 43.5681 78.3727 43.4994 78.0223 43.5131C77.4552 43.5143 76.9011 43.6826 76.4294 43.997C75.8043 44.4393 75.2554 44.98 74.8039 45.598V54.9281H71.0881V33.8389H74.8039Z" fill="#193166"/>
<path d="M133.571 37.083H133.873V40.8274H138.711V43.6365H133.863V50.1314C133.845 50.4171 133.888 50.7033 133.99 50.9709C134.091 51.2386 134.249 51.4814 134.452 51.6832C134.655 51.885 134.899 52.041 135.168 52.1408C135.437 52.2406 135.723 52.2818 136.009 52.2618C136.876 52.2618 137.874 51.949 139.003 51.3233V54.298C137.82 54.854 136.533 55.1571 135.226 55.1878C133.633 55.1878 132.391 54.7548 131.5 53.8888C130.609 53.0228 130.163 51.8505 130.161 50.3718V43.6365H127.957V43.0324L133.571 37.083Z" fill="#193166"/>
<path d="M113.386 41.5548C113.045 41.295 112.682 41.0667 112.3 40.8728C111.843 40.6606 111.345 40.5498 110.84 40.5481C110.002 40.5563 109.198 40.8825 108.591 41.4606C107.906 42.069 107.225 43.0519 106.549 44.4094H106.487V40.8274H102.775V54.928H106.487V48.4947C106.496 47.761 106.67 47.0386 106.995 46.3806C107.303 45.717 107.764 45.136 108.34 44.6854C108.818 44.284 109.417 44.0551 110.041 44.0359C110.564 44.0359 111.227 44.3054 112.017 44.8153L113.386 41.5548Z" fill="#193166"/>
<path d="M99.9075 52.3983C99.6728 52.5276 99.4138 52.6072 99.1469 52.6321C98.7145 52.6321 98.4967 52.3658 98.4967 51.8299V44.9323C98.528 44.3205 98.4144 43.71 98.1653 43.1503C97.9162 42.5906 97.5386 42.0974 97.063 41.7108C96.105 40.94 94.7191 40.5557 92.905 40.5579C91.1038 40.5304 89.3393 41.0676 87.8596 42.094V45.3187C88.4059 44.7738 89.0386 44.3229 89.7321 43.984C90.5294 43.5999 91.4023 43.398 92.2874 43.393C93.9584 43.393 94.7938 44.0825 94.7938 45.4616V46.1111L91.7867 46.9879C89.9771 47.5097 88.7081 48.1235 87.9799 48.8293C87.255 49.5307 86.8908 50.4952 86.8908 51.713C86.8869 52.1772 86.9827 52.6368 87.1717 53.0609C87.3607 53.485 87.6385 53.8636 87.9864 54.1714C88.6912 54.8457 89.6342 55.2146 90.6099 55.1976C92.0404 55.1976 93.4653 54.6942 94.8849 53.6875C94.9257 53.9235 95.0127 54.1491 95.141 54.3514C95.2693 54.5537 95.4364 54.7287 95.6326 54.8663C96.105 55.1121 96.6355 55.2244 97.167 55.1911C98.2507 55.1911 99.4427 54.7938 100.743 53.9993V51.8559C100.496 52.0741 100.217 52.2547 99.9173 52.3917L99.9075 52.3983ZM94.8036 51.7423C93.9887 52.4848 93.1727 52.8572 92.3557 52.8594C92.1319 52.8647 91.9094 52.8258 91.7008 52.745C91.4921 52.6642 91.3015 52.5431 91.1398 52.3885C90.9756 52.229 90.8469 52.0366 90.7623 51.8239C90.6777 51.6112 90.6391 51.3831 90.6489 51.1545C90.6374 50.7237 90.7856 50.3039 91.065 49.9756C91.4367 49.5818 91.8774 49.2593 92.3654 49.0241C93.1518 48.6308 93.9669 48.2976 94.8036 48.0271V51.7423Z" fill="#193166"/>
<path d="M85.9366 5.75683L83.3818 8.30713L85.9349 10.8592L88.4897 8.30894L85.9366 5.75683Z" fill="#193166"/>
<path d="M81.6991 13.568C81.3587 13.3082 80.9953 13.0799 80.6133 12.886C80.1565 12.6722 79.6582 12.5614 79.1537 12.5613C78.3152 12.5701 77.5112 12.8962 76.904 13.4738C76.2169 14.0822 75.5364 15.0651 74.8624 16.4225H74.8039V12.8276H71.0881V26.9412H74.8039V20.5111C74.8112 19.7776 74.9835 19.0551 75.3078 18.397C75.6148 17.7329 76.0762 17.1517 76.6537 16.7018C77.1311 16.3004 77.7301 16.0716 78.3539 16.0523C78.8773 16.0523 79.5405 16.3186 80.3305 16.8317L81.6991 13.568Z" fill="#193166"/>
<path d="M35.7407 32.0463C34.4079 28.5484 32.0465 25.5355 28.9671 23.4036C25.8878 21.2717 22.2346 20.1207 18.488 20.102H15.9425V11.9832C15.9425 6.51772 13.6149 0 2.5292 0H0.0325058V25.0836H10.9751V31.0298H0.0325058V38.551C0.024488 41.2585 0.613061 43.9345 1.75639 46.3894C2.89971 48.8442 4.56978 51.0176 6.64818 52.7554C8.72658 54.4932 11.1624 55.7528 13.7827 56.4448C16.403 57.1369 19.1437 57.2445 21.8103 56.7599C24.4769 56.2753 27.0041 55.2104 29.2125 53.6409C31.421 52.0713 33.2566 50.0355 34.5892 47.6778C35.9218 45.3201 36.7186 42.6984 36.9233 39.9987C37.1279 37.2989 36.7352 34.5872 35.7732 32.056L35.7407 32.0463ZM15.9653 36.0244H18.488C18.9902 36.0244 19.4811 36.1732 19.8987 36.4519C20.3162 36.7306 20.6416 37.1267 20.8338 37.5901C21.0259 38.0536 21.0762 38.5635 20.9782 39.0555C20.8803 39.5475 20.6384 39.9994 20.2834 40.3541C19.9283 40.7089 19.4759 40.9504 18.9834 41.0483C18.4909 41.1461 17.9803 41.0959 17.5164 40.904C17.0525 40.712 16.6559 40.3869 16.3769 39.9698C16.0979 39.5527 15.949 39.0624 15.949 38.5607L15.9653 36.0244ZM5.02271 5.13753C9.8731 5.7578 10.9524 8.34606 10.9524 11.9962L10.9719 20.115H5.02271V5.13753ZM18.488 52.0183C14.9138 52.014 11.4872 50.5938 8.95986 48.0691C6.4325 45.5444 5.01075 42.1214 5.00644 38.551V36.0147H10.9589V38.551C10.9589 40.0385 11.4005 41.4927 12.2278 42.7295C13.0551 43.9664 14.231 44.9304 15.6067 45.4997C16.9825 46.0689 18.4964 46.2179 19.9569 45.9277C21.4174 45.6374 22.759 44.9211 23.812 43.8693C24.865 42.8174 25.582 41.4773 25.8726 40.0183C26.1631 38.5593 26.0139 37.0471 25.444 35.6727C24.8742 34.2984 23.9092 33.1238 22.671 32.2973C21.4328 31.4709 19.9772 31.0298 18.488 31.0298H15.949V25.0836H18.488C22.0636 25.0836 25.4927 26.5025 28.021 29.0281C30.5493 31.5537 31.9696 34.9792 31.9696 38.551C31.9696 42.1227 30.5493 45.5482 28.021 48.0738C25.4927 50.5995 22.0636 52.0183 18.488 52.0183Z" fill="#193166"/>
</g>
<defs>
<clipPath id="clip0_1_19">
<rect width="139" height="57" fill="white"/>
</clipPath>
</defs>
</svg>
