<svg width="197" height="80" viewBox="0 0 197 80" fill="none" xmlns="http://www.w3.org/2000/svg">
<g clip-path="url(#clip0_218_761)">
<path d="M180.183 73.5416C179.849 73.7237 179.48 73.8354 179.1 73.8697C178.487 73.8697 178.179 73.496 178.179 72.7439V63.063C178.179 61.1304 177.5 59.6233 176.142 58.5415C174.784 57.4598 172.822 56.9205 170.254 56.9235C167.824 56.8907 165.439 57.5729 163.403 58.8834V63.3364C164.106 62.6956 164.899 62.1583 165.757 61.7412C166.887 61.202 168.124 60.9187 169.378 60.9116C171.747 60.9116 172.931 61.8794 172.931 63.815V64.7266L168.669 65.9572C166.101 66.6895 164.302 67.551 163.273 68.5415C162.246 69.526 161.735 70.8797 161.735 72.5889C161.728 73.2401 161.864 73.8849 162.131 74.4801C162.398 75.0753 162.791 75.6069 163.283 76.0393C164.282 76.9857 165.618 77.5034 167.001 77.4796C169.028 77.4796 171.048 76.7731 173.06 75.3601C173.173 76.0245 173.547 76.6176 174.101 77.0101C174.77 77.355 175.522 77.5126 176.276 77.4659C177.811 77.4659 179.501 76.9083 181.344 75.7932V72.7849C180.994 73.0902 180.601 73.3435 180.178 73.537L180.183 73.5416ZM172.926 72.6254C171.768 73.6677 170.612 74.1903 169.457 74.1933C169.14 74.201 168.824 74.1466 168.528 74.0331C168.233 73.9197 167.962 73.7496 167.733 73.5324C167.501 73.3085 167.318 73.0385 167.198 72.74C167.079 72.4415 167.024 72.1213 167.038 71.8004C167.021 71.1959 167.231 70.6066 167.627 70.1459C168.154 69.5932 168.779 69.1406 169.47 68.8105C170.585 68.2585 171.74 67.7908 172.926 67.4112V72.6254Z" fill="#193166"/>
<path d="M84.8368 8.18604C87.5767 8.18604 89.8113 8.8925 91.5407 10.3055C92.3577 10.9293 93.0169 11.7325 93.4663 12.6517C93.9157 13.5708 94.1429 14.5808 94.13 15.6017C94.155 16.8769 93.7765 18.1278 93.0473 19.1797C92.2535 20.2713 91.1688 21.1233 89.9142 21.6409V21.8916C91.8044 22.2499 93.5189 23.2239 94.7843 24.6582C95.9409 26.0087 96.5614 27.7291 96.5304 29.4987C96.5541 31.0574 96.1101 32.5881 95.2543 33.8971C94.3962 35.1948 93.1655 36.209 91.7203 36.8096C90.0327 37.4915 88.2211 37.822 86.3987 37.7804H73.8711V8.18604H84.8368ZM83.2979 20.4923C84.5943 20.5636 85.8748 20.1811 86.9148 19.4121C87.356 19.0463 87.7055 18.5843 87.9357 18.0623C88.1659 17.5404 88.2707 16.9727 88.2417 16.4039C88.2661 15.8857 88.1686 15.3689 87.9567 14.8943C87.7449 14.4198 87.4244 14.0004 87.0207 13.6692C86.1036 12.9597 84.9582 12.602 83.7955 12.6619H79.6488V20.4923H83.2979ZM84.6433 33.3273C86.603 33.3273 88.0804 32.9642 89.0756 32.238C89.5719 31.8694 89.9686 31.3854 90.2306 30.8289C90.4926 30.2723 90.6118 29.6605 90.5777 29.0475C90.5972 28.4684 90.4715 27.8936 90.2119 27.3742C89.9522 26.8549 89.5666 26.4072 89.0895 26.0712C88.0989 25.3419 86.7858 24.9773 85.0949 24.9773H79.6488V33.3456L84.6433 33.3273Z" fill="#193166"/>
<path d="M124.516 18.0034H119.25V37.7938H124.516V18.0034Z" fill="#193166"/>
<path d="M143.065 18.4504V8.18604H148.299V37.8123H139.084C135.884 37.8123 133.323 36.9007 131.404 35.0775C129.484 33.2544 128.512 30.7612 128.487 27.5981C128.465 25.8163 128.926 24.0613 129.823 22.516C130.698 21.009 131.973 19.7671 133.509 18.9244C135.055 18.0596 136.802 17.6102 138.577 17.6209C140.105 17.645 141.618 17.9255 143.051 18.4504H143.065ZM140.287 33.8059H143.051V22.3474C142.008 21.805 140.848 21.5204 139.669 21.5178C138.891 21.4821 138.114 21.6093 137.389 21.8913C136.664 22.1733 136.008 22.6036 135.463 23.1541C134.928 23.7289 134.514 24.4025 134.243 25.1362C133.973 25.8699 133.852 26.6492 133.887 27.4294C133.887 31.6834 136.022 33.8105 140.291 33.8105" fill="#193166"/>
<path d="M172.042 18.0036V21.6909H168.619C169.102 22.2523 169.495 22.8842 169.784 23.5642C170.009 24.1571 170.122 24.786 170.116 25.4193C170.101 27.0408 169.456 28.5943 168.314 29.7584C167.261 30.9009 165.449 31.6438 162.878 31.9872C161.933 32.0504 161.002 32.2469 160.113 32.5706C159.911 32.6501 159.738 32.7885 159.617 32.9676C159.496 33.1467 159.433 33.358 159.436 33.5733C159.436 33.9835 159.712 34.298 160.261 34.5168C161.119 34.8115 162.005 35.0206 162.905 35.1412C165.919 35.6244 168.136 36.3597 169.558 37.3473C170.222 37.7662 170.767 38.3465 171.139 39.0327C171.512 39.7189 171.7 40.4882 171.687 41.267C171.723 42.2246 171.503 43.1747 171.048 44.0208C170.593 44.8669 169.92 45.5789 169.098 46.0847C167.365 47.206 164.88 47.7666 161.643 47.7666C158.571 47.7666 156.129 47.2379 154.317 46.1804C152.505 45.123 151.599 43.704 151.599 41.9234C151.599 39.4074 153.348 37.6693 156.847 36.7091C155.331 36.0619 154.575 35.205 154.575 34.1476C154.575 32.7681 155.718 31.814 158.003 31.2853V31.1987C156.554 30.8407 155.254 30.044 154.285 28.9197C153.372 27.8556 152.881 26.5001 152.903 25.1048C152.872 24.1161 153.077 23.1342 153.501 22.2381C153.924 21.342 154.554 20.5567 155.34 19.9452C156.971 18.6417 159.1 17.9884 161.726 17.9854L172.042 18.0036ZM156.519 41.7046C156.519 43.4731 158.304 44.3573 161.873 44.3573C163.125 44.4187 164.372 44.1663 165.499 43.6235C166.378 43.1373 166.817 42.4977 166.817 41.7046C166.817 40.8295 166.319 40.1731 165.329 39.7265C163.988 39.2198 162.556 38.9918 161.122 39.0565C159.967 39.0107 158.82 39.2703 157.8 39.8085C156.943 40.3099 156.519 40.9434 156.519 41.7046V41.7046ZM157.777 25.1823C157.766 25.6646 157.858 26.1438 158.049 26.5879C158.24 27.032 158.524 27.4307 158.883 27.7575C159.607 28.4362 160.572 28.8048 161.569 28.783C162.066 28.7995 162.561 28.7132 163.022 28.5296C163.483 28.3459 163.9 28.0689 164.246 27.7164C164.595 27.3581 164.867 26.9344 165.048 26.4702C165.228 26.006 165.313 25.5107 165.297 25.0136C165.304 24.5518 165.211 24.0937 165.022 23.6711C164.834 23.2485 164.555 22.8715 164.205 22.566C163.487 21.914 162.543 21.5613 161.569 21.5815C161.072 21.5714 160.577 21.6611 160.115 21.8452C159.654 22.0292 159.234 22.3039 158.883 22.6526C158.532 22.9754 158.252 23.367 158.061 23.8025C157.871 24.238 157.774 24.7078 157.777 25.1823" fill="#193166"/>
<path d="M184.035 17.6255C186.977 17.6255 189.304 18.5568 191.015 20.4195C192.726 22.2821 193.583 24.8649 193.586 28.1679V28.9564H179.432C179.543 30.5186 180.26 31.9781 181.431 33.0312C182.556 33.9838 184.09 34.4623 186.039 34.4623C187.279 34.4661 188.509 34.2468 189.67 33.8151C190.952 33.3175 192.165 32.6588 193.277 31.8552V35.734C190.937 37.3718 188.095 38.1907 184.753 38.1907C181.596 38.1907 179.019 37.2518 177.022 35.3739C175.026 33.4961 174.027 30.9953 174.027 27.8716C174.027 24.8634 174.949 22.4067 176.792 20.5015C178.635 18.5963 181.044 17.6437 184.021 17.6437L184.035 17.6255ZM188.628 25.7978C188.567 24.5596 188.102 23.3744 187.301 22.4204C186.912 22.008 186.435 21.685 185.906 21.474C185.377 21.263 184.807 21.1691 184.237 21.1989C183.653 21.1732 183.069 21.2632 182.52 21.4636C181.971 21.6639 181.468 21.9706 181.04 22.3657C180.156 23.3087 179.616 24.5166 179.506 25.7978H188.628Z" fill="#193166"/>
<path d="M84.8368 47.4932C87.5767 47.4932 89.8113 48.1996 91.5407 49.6126C92.3572 50.2369 93.0161 51.0402 93.4654 51.9593C93.9147 52.8783 94.1422 53.888 94.13 54.9089C94.155 56.184 93.7765 57.435 93.0473 58.4868C92.2535 59.5784 91.1688 60.4305 89.9142 60.948V61.1987C91.8044 61.557 93.5189 62.531 94.7843 63.9654C95.9409 65.3158 96.5614 67.0362 96.5304 68.8058C96.5547 70.3646 96.1106 71.8955 95.2543 73.2042C94.3962 74.5019 93.1655 75.5161 91.7203 76.1167C90.033 76.8001 88.2215 77.1322 86.3987 77.0921H73.8711V47.4932H84.8368ZM83.2979 59.7995C84.5943 59.8707 85.8748 59.4883 86.9148 58.7192C87.356 58.3535 87.7055 57.8914 87.9357 57.3695C88.1659 56.8475 88.2707 56.2798 88.2417 55.711C88.2661 55.1928 88.1686 54.676 87.9567 54.2015C87.7449 53.7269 87.4244 53.3075 87.0207 52.9763C86.1026 52.2687 84.9579 51.9112 83.7955 51.969H79.6488V59.7812L83.2979 59.7995ZM84.6433 72.639C86.603 72.639 88.0804 72.2744 89.0756 71.5451C89.5722 71.1768 89.9692 70.6928 90.2312 70.1362C90.4932 69.5796 90.6122 68.9677 90.5777 68.3546C90.5972 67.7755 90.4715 67.2007 90.2119 66.6813C89.9522 66.162 89.5666 65.7143 89.0895 65.3783C88.0989 64.6536 86.7858 64.289 85.0949 64.289H79.6488V72.6573L84.6433 72.639Z" fill="#193166"/>
<path d="M106.017 47.4932V60.0775H106.146C107.842 57.9717 109.891 56.9204 112.293 56.9234C113.249 56.8839 114.203 57.0487 115.09 57.4065C115.976 57.7644 116.774 58.307 117.43 58.9973C118.729 60.3829 119.379 62.1908 119.379 64.4212V77.0921H114.136V65.4148C114.193 64.282 113.857 63.164 113.182 62.247C112.871 61.8631 112.474 61.5567 112.022 61.3524C111.57 61.1482 111.075 61.0518 110.579 61.0711C109.775 61.0727 108.99 61.3089 108.321 61.7502C107.435 62.3709 106.657 63.1298 106.017 63.9973V77.0921H100.751V47.4932H106.017Z" fill="#193166"/>
<path d="M189.306 52.0464H189.734V57.3016H196.59V61.2442H189.72V70.36C189.694 70.7608 189.755 71.1626 189.899 71.5382C190.043 71.9139 190.267 72.2547 190.555 72.5379C190.843 72.8211 191.189 73.04 191.569 73.1801C191.95 73.3202 192.356 73.3781 192.761 73.3499C193.99 73.3499 195.404 72.9109 197.005 72.0327V76.2077C195.327 76.9881 193.504 77.4135 191.651 77.4566C189.393 77.4566 187.633 76.8489 186.371 75.6334C185.108 74.418 184.476 72.7726 184.472 70.6973V61.2442H181.349V60.3964L189.306 52.0464Z" fill="#193166"/>
<path d="M160.698 58.3226C160.215 57.9579 159.7 57.6376 159.159 57.3655C158.511 57.0675 157.805 56.912 157.09 56.9097C155.902 56.9211 154.762 57.3789 153.902 58.1904C152.931 59.0443 151.967 60.4238 151.008 62.329H150.921V57.3017H145.659V77.092H150.921V68.0628C150.933 67.033 151.179 66.0191 151.64 65.0956C152.076 64.1643 152.73 63.3489 153.547 62.7164C154.224 62.153 155.073 61.8318 155.957 61.8048C156.699 61.8048 157.638 62.1831 158.758 62.8987L160.698 58.3226Z" fill="#193166"/>
<path d="M141.596 73.5413C141.263 73.7229 140.896 73.8346 140.518 73.8695C139.905 73.8695 139.596 73.4958 139.596 72.7437V63.0628C139.641 62.2042 139.48 61.3473 139.127 60.5617C138.774 59.7762 138.238 59.084 137.564 58.5413C136.207 57.4596 134.242 56.9203 131.671 56.9233C129.119 56.8847 126.618 57.6386 124.521 59.0792V63.6052C125.295 62.8404 126.192 62.2074 127.175 61.7319C128.304 61.1927 129.542 60.9093 130.796 60.9023C133.164 60.9023 134.348 61.8701 134.348 63.8057V64.7173L130.086 65.9479C127.522 66.6802 125.723 67.5416 124.691 68.5322C123.664 69.5167 123.148 70.8704 123.148 72.5796C123.142 73.2311 123.278 73.8762 123.546 74.4714C123.814 75.0665 124.207 75.598 124.7 76.0299C125.699 76.9764 127.036 77.4941 128.419 77.4702C130.446 77.4702 132.465 76.7637 134.477 75.3508C134.535 75.682 134.658 75.9987 134.84 76.2826C135.022 76.5666 135.259 76.8121 135.537 77.0053C136.207 77.3502 136.958 77.5078 137.712 77.4611C139.248 77.4611 140.937 76.9035 142.78 75.7884V72.7801C142.429 73.0864 142.035 73.3398 141.61 73.5322L141.596 73.5413ZM134.362 72.6206C133.207 73.6629 132.051 74.1855 130.893 74.1885C130.576 74.196 130.26 74.1414 129.965 74.028C129.669 73.9146 129.399 73.7446 129.17 73.5276C128.937 73.3038 128.754 73.0337 128.635 72.7352C128.515 72.4367 128.46 72.1166 128.474 71.7957C128.457 71.1911 128.667 70.6018 129.064 70.1411C129.59 69.5884 130.215 69.1358 130.907 68.8057C132.021 68.2538 133.176 67.786 134.362 67.4064V72.6206Z" fill="#193166"/>
<path d="M121.795 8.07982L118.174 11.6592L121.792 15.2411L125.413 11.6617L121.795 8.07982Z" fill="#193166"/>
<path d="M115.79 19.0428C115.307 18.6782 114.792 18.3578 114.251 18.0857C113.603 17.7856 112.897 17.63 112.182 17.6299C110.994 17.6422 109.854 18.0999 108.994 18.9106C108.02 19.7645 107.055 21.144 106.1 23.0492H106.017V18.0036H100.751V37.8122H106.017V28.7876C106.028 27.7581 106.272 26.7441 106.731 25.8204C107.166 24.8883 107.82 24.0725 108.639 23.4412C109.315 22.8778 110.164 22.5566 111.049 22.5296C111.79 22.5296 112.73 22.9034 113.85 23.6235L115.79 19.0428Z" fill="#193166"/>
<path d="M50.6541 44.9772C48.7651 40.068 45.4184 35.8392 41.0541 32.8471C36.6898 29.855 31.5123 28.2396 26.2024 28.2133H22.5948V16.8186C22.5948 9.14767 19.2958 0 3.58449 0H0.046013V35.2051H15.5546V43.5506H0.046013V54.1066C0.0346497 57.9066 0.868815 61.6625 2.48921 65.1079C4.10961 68.5532 6.47654 71.6036 9.42218 74.0426C12.3678 76.4816 15.82 78.2495 19.5337 79.2208C23.2474 80.1921 27.1317 80.3431 30.911 79.663C34.6903 78.9829 38.2719 77.4883 41.4019 75.2854C44.5319 73.0825 47.1334 70.2252 49.022 66.9162C50.9107 63.6072 52.04 59.9276 52.33 56.1385C52.62 52.3493 52.0636 48.5434 50.7001 44.9909L50.6541 44.9772ZM22.627 50.5606H26.2024C26.9141 50.5606 27.6099 50.7694 28.2016 51.1605C28.7934 51.5517 29.2546 52.1076 29.5269 52.7581C29.7993 53.4085 29.8705 54.1243 29.7317 54.8148C29.5928 55.5053 29.2501 56.1396 28.7469 56.6374C28.2436 57.1352 27.6025 57.4743 26.9044 57.6116C26.2064 57.749 25.4829 57.6785 24.8254 57.4091C24.1678 57.1396 23.6058 56.6834 23.2104 56.098C22.815 55.5126 22.604 54.8244 22.604 54.1203L22.627 50.5606ZM7.11847 7.21056C13.9928 8.08112 15.5224 11.7138 15.5224 16.8368L15.55 28.2315H7.11847V7.21056ZM26.2024 73.0082C21.1368 73.0021 16.2804 71.0088 12.6985 67.4654C9.11651 63.922 7.1015 59.1178 7.09541 54.1066V50.5469H15.5316V54.1066C15.5316 56.1944 16.1574 58.2353 17.33 59.9713C18.5025 61.7072 20.169 63.0602 22.1188 63.8592C24.0687 64.6581 26.2143 64.8672 28.2842 64.4599C30.3541 64.0526 32.2555 63.0472 33.7479 61.5709C35.2402 60.0946 36.2565 58.2137 36.6682 56.166C37.08 54.1183 36.8686 51.9959 36.0609 50.067C35.2533 48.1381 33.8856 46.4895 32.1308 45.3296C30.376 44.1697 28.3129 43.5506 26.2024 43.5506H22.604V35.2051H26.2024C31.2699 35.2051 36.1299 37.1965 39.7131 40.7412C43.2964 44.286 45.3094 49.0936 45.3094 54.1066C45.3094 59.1196 43.2964 63.9273 39.7131 67.4721C36.1299 71.0168 31.2699 73.0082 26.2024 73.0082" fill="#193166"/>
</g>
<defs>
<clipPath id="clip0_218_761">
<rect width="197" height="80" fill="white"/>
</clipPath>
</defs>
</svg>
