<svg width="41" height="46" viewBox="0 0 41 46" fill="none" xmlns="http://www.w3.org/2000/svg">
<path d="M5.23846 27.9943C4.30725 27.5911 3.50345 27.1365 2.642 26.9C1.83515 26.6788 0.96458 26.6909 0 26.5969L1.01618 23.4475L4.68642 24.3175L5.96949 21.9774L2.13847 19.904L4.26176 17.176L7.57714 19.031C8.53565 17.9216 9.44562 16.8637 10.4436 15.6967L6.26371 13.9447L8.99365 10.4043L12.2635 13.2263L14.0835 11.2863L10.5164 7.75499L14.2079 4.14485L16.8377 8.21877L18.9337 6.62133L16.4525 2.07454C19.0975 -0.653541 20.5565 -0.686894 23.6777 1.95025C23.1833 2.8596 22.6828 3.76897 22.1611 4.69954C21.0721 6.68801 21.0691 6.68801 23.2834 8.05811L25.9072 3.9963L29.4531 7.73681L25.9041 11.1045L27.7878 13.1505L31.0668 10.3376L33.821 13.8598L29.6351 15.6088L32.4864 18.9431L35.7926 17.1244L37.9583 19.8283L34.1364 21.8925C34.5672 22.7139 34.9524 23.4535 35.368 24.2508L39.0625 23.4051C39.4143 24.4569 39.748 25.4481 40.0452 26.3271L34.7492 27.7245C33.733 25.9422 32.6259 23.8567 31.3913 21.8592C28.7585 17.6367 25.6493 13.8235 21.7728 10.6437C20.5261 9.61919 19.6495 9.63434 18.4362 10.6437C13.0582 15.0541 9.18174 20.5951 6.02107 26.7091C5.83604 27.0698 5.6692 27.4365 5.4781 27.7942C5.42047 27.8609 5.32339 27.9155 5.23846 27.9943Z" fill="#193166"/>
<path d="M14.9993 22.3925C15.7364 21.0861 16.9193 19.9251 16.8708 18.8157C16.8223 17.7063 15.5392 16.6636 14.7202 15.4814L16.6373 13.9446L18.3844 16.021C18.3844 14.7266 18.3844 13.7566 18.3844 12.7897C18.3844 11.7348 19.3854 10.389 20.1255 10.6073C21.1235 10.9104 21.9 11.4863 21.7271 12.7927C21.6088 13.7021 21.7058 14.663 21.7058 15.9512L23.4833 13.8688L25.4095 15.4208C24.919 16.1951 24.3822 16.9391 23.8018 17.6487C22.8919 18.6581 22.8918 19.519 23.8928 20.4526C24.385 20.9843 24.841 21.5483 25.2578 22.1409L27.645 19.2007L30.2081 22.4319C29.3709 23.1049 28.5762 23.8142 27.7117 24.4204C26.6076 25.1964 26.6925 25.9815 27.4933 26.906C27.8438 27.3602 28.1699 27.8327 28.4701 28.3215L31.8794 25.5753C32.3314 26.6695 32.7409 27.6577 33.0776 28.4761L27.1657 33.2503C25.8372 28.4519 23.9262 23.8536 20.0739 20.1767C16.2672 23.9021 14.2197 28.4307 12.9882 33.326L7.07031 28.5792C7.37364 27.7972 7.73158 26.8302 8.1805 25.645L11.6384 28.3519L13.61 25.4419L9.92159 22.5017L12.4604 19.2522L14.9993 22.3925Z" fill="#193166"/>
<path d="M20.0644 24.2992C22.1392 26.9454 23.8196 29.6674 24.6143 32.8532C24.7296 33.3079 24.8085 34.0384 24.5598 34.2749C22.3364 36.3573 22.2636 39.1248 22.0876 41.8256C21.8693 45.1326 21.9178 45.1387 18.5721 44.9265C18.4281 44.9037 18.2868 44.8661 18.1505 44.8143C18.017 42.8895 18.1019 40.9465 17.6924 39.1127C17.3466 37.5546 16.3972 36.133 15.7784 34.6265C15.5722 34.1203 15.375 33.4958 15.4751 32.9957C16.2334 29.7341 17.9957 26.997 20.0644 24.2992ZM20.0372 36.0208C22.3394 34.0415 22.3212 32.0015 20.0372 30.2434C17.7531 32.244 17.7288 34.1506 20.0372 36.0208Z" fill="#193166"/>
<path d="M2.11719 34.2234C4.08881 34.3477 6.01493 34.5265 7.94409 34.5689C10.1311 34.6023 12.2877 34.6114 14.1229 36.0603C14.5445 36.3937 14.9965 36.6878 15.5394 37.0727C12.2028 37.0727 9.26658 37.1758 6.3334 37.0394C5.43567 37.0181 4.56251 36.7421 3.81592 36.2435C3.06933 35.7448 2.48016 35.0442 2.11719 34.2234V34.2234Z" fill="#193166"/>
<path d="M24.9238 37.0908C26.6953 34.7265 29.313 34.5264 32.0187 34.4749C33.9933 34.4355 35.9619 34.2809 37.9487 34.1718C37.2086 35.9238 35.5949 36.8392 33.5687 37.0302C32.0732 37.1726 30.5536 37.0787 29.046 37.0847L24.9238 37.0908Z" fill="#193166"/>
<path d="M5.13477 40.1523C6.6514 39.8492 8.07098 39.6189 9.46932 39.2885C12.1295 38.661 14.6259 38.7125 16.5004 40.5494C14.7806 40.7555 12.9212 40.9253 11.08 41.2133C8.93241 41.5437 6.80306 42.0074 5.13477 40.1523Z" fill="#193166"/>
<path d="M35.0432 40.0281C33.4416 41.8195 31.4943 41.474 29.5226 41.1678C27.6026 40.8647 25.6673 40.6616 23.7412 40.4161C24.909 39.3461 26.3984 38.6792 28.1577 38.9005C30.4478 39.2157 32.7197 39.6462 35.0432 40.0281Z" fill="#193166"/>
</svg>
