<svg width="1272" height="230" viewBox="0 0 1272 230" fill="none" xmlns="http://www.w3.org/2000/svg">
<path d="M1263.04 159.383L1261.41 157.672C1263.54 155.641 1265.59 152.493 1267.1 149.002C1268.62 145.507 1269.5 141.917 1269.5 139.079V90.9143C1269.5 88.0767 1268.62 84.485 1267.11 80.9877C1265.6 77.4945 1263.56 74.3433 1261.46 72.3108L1196.56 10.3267C1196.56 10.3246 1196.56 10.3225 1196.55 10.3204M1263.04 159.383L73.7714 8.5125C78.6773 3.83651 88.3844 0 95.3573 0H1176.69C1183.65 0 1193.35 3.83651 1198.28 8.5125L1196.55 10.3204M1263.04 159.383L1261.41 157.673L1196.5 219.673C1196.5 219.673 1196.5 219.673 1196.5 219.673C1194.35 221.723 1191.01 223.703 1187.29 225.171C1183.57 226.638 1179.72 227.5 1176.64 227.5H95.3573C92.2853 227.5 88.4392 226.639 84.722 225.171C81.0023 223.702 77.6536 221.722 75.4945 219.67C75.4943 219.67 75.4941 219.67 75.4939 219.669L10.59 157.673L10.5893 157.672C8.46117 155.641 6.41374 152.493 4.89711 149.002C3.37884 145.507 2.5 141.917 2.5 139.079V90.9143C2.5 88.0771 3.37884 84.4863 4.89711 80.9915C6.41374 77.5005 8.46117 74.3524 10.5893 72.3213L10.59 72.3206L75.4963 10.3222C75.4965 10.322 75.4966 10.3218 75.4968 10.3216M1263.04 159.383L75.4968 10.3216M1196.55 10.3204C1194.39 8.27168 1191.04 6.2947 1187.33 4.82816C1183.61 3.36121 1179.77 2.5 1176.69 2.5H95.3573C92.2747 2.5 88.4233 3.36164 84.7069 4.82823C80.9871 6.29616 77.6449 8.27443 75.4968 10.3216M1196.55 10.3204L75.4968 10.3216" stroke="#D5C8BB" stroke-width="5"/>
</svg>
