<svg width="1300" height="248" viewBox="0 0 1300 248" fill="none" xmlns="http://www.w3.org/2000/svg">
<path d="M1299.02 97.6367V149.363C1299.02 156.415 1294.95 166.278 1289.97 171.273L1223.67 237.858C1218.66 242.886 1208.76 247.007 1201.63 247.007H97.3829C90.282 247.007 80.3686 242.886 75.3385 237.858L9.05146 171.273C4.07476 166.278 0 156.415 0 149.363V97.6367C0 90.5849 4.07476 80.7217 9.05146 75.7267L75.3385 9.14193C80.3486 4.12019 90.2619 0 97.3829 0H1201.69C1208.79 0 1218.7 4.12019 1223.73 9.14193L1290.03 75.7267C1294.95 80.7217 1299.02 90.5849 1299.02 97.6367Z" fill="#E9DBCD"/>
</svg>
