<svg width="721" height="700" viewBox="0 0 721 700" fill="none" xmlns="http://www.w3.org/2000/svg">
<path d="M48.4266 303.879H16.6508C14.6333 303.88 12.6368 304.29 10.7827 305.085C8.92854 305.881 7.25525 307.045 5.8643 308.506C4.47335 309.968 3.39359 311.697 2.6908 313.588C1.988 315.48 1.67674 317.495 1.77577 319.51C2.06825 325.466 2.42337 332.571 2.77852 339.717C3.28236 349.859 7.66441 359.419 15.0176 366.42C22.3708 373.421 32.1328 377.328 42.2846 377.331H114.235" stroke="#193166" stroke-width="1.68" stroke-miterlimit="10" stroke-linecap="round"/>
<path d="M114.234 306.283H113.19C102.46 306.124 92.1944 301.88 84.485 294.413C70.822 281.165 57.4307 282.878 53.7747 283.066C22.2912 284.675 25.362 296.231 20.6196 303.963" stroke="#193166" stroke-width="1.68" stroke-miterlimit="10" stroke-linecap="round"/>
<path d="M580.073 377.331L629.46 377.185C653.59 377.185 666.146 399.691 672.35 406.273C678.555 412.856 688.834 428.507 690.819 431.349C698.026 427.17 700.826 422.322 698.737 413.901C696.647 405.479 670.449 365.316 672.016 357.208C673.583 349.1 681.104 347.407 689.523 363.79C692.879 370.795 695.613 378.081 697.692 385.565C698.695 389.598 698.486 412.981 699.175 416.053C699.865 419.124 704.941 430.471 711.877 433.606C712.421 427.023 713.967 413.984 715.011 407.402C716.056 400.819 725.916 356.748 706.655 333.887C695.31 320.451 686.013 306.136 574.578 306.136" stroke="#193166" stroke-width="1.68" stroke-miterlimit="10" stroke-linecap="round"/>
<path d="M400.427 556.144C400.427 593.152 403.874 638.623 387.892 671.995C384.006 680.082 368.421 702.316 356.555 694.522C351.959 691.534 352.021 685.85 354.8 681.629C359.96 673.772 368.923 668.673 371.325 658.997C375.211 643.388 356.053 626.002 340.886 629.45C327.954 632.375 319.117 645.101 323.672 657.681C325.726 663.911 328.176 670.005 331.004 675.924C333.261 680.626 340.698 689.172 336.06 694.856C326.095 706.997 311.45 681.587 307.794 671.139C306.561 667.586 303.741 651.872 304.18 648.006M329.354 556.938C329.354 569.727 331.255 579.068 322.481 588.283C314.939 596.266 309.57 596.83 296.575 597.854C285.67 598.731 255.816 603.956 250.113 615.261C247.23 620.966 252.682 623.118 257.446 622.7C269.876 621.592 285.754 612.67 298.268 612.523C301.84 612.523 288.428 620.025 284.688 622.01C274.639 627.339 269.521 632.459 260.767 640.483C256.97 644.034 253.905 648.293 251.742 653.021C247.815 661.568 256.568 669.153 261.958 662.174C278.504 640.755 296.45 633.692 296.45 633.692C296.45 633.692 286.297 651.517 284.584 654.985C280.367 662.798 277.713 671.358 276.77 680.187C276.332 684.157 276.519 689.214 280.301 691.638C281.027 692.162 281.861 692.517 282.742 692.676C283.623 692.836 284.529 692.796 285.393 692.559C286.256 692.323 287.056 691.896 287.733 691.31C288.41 690.724 288.947 689.993 289.305 689.172C291.203 685.179 292.606 680.968 293.483 676.634C294.42 672.053 295.82 667.579 297.662 663.281C298.121 662.237 302.028 649.218 304.054 647.483" stroke="#193166" stroke-width="1.68" stroke-miterlimit="10" stroke-linecap="square"/>
<path d="M293.86 377.269C284.44 377.269 275.407 381.011 268.747 387.673C262.086 394.335 258.344 403.371 258.344 412.793C258.344 422.215 262.086 431.25 268.747 437.912C275.407 444.574 284.44 448.317 293.86 448.317H329.375V377.269H293.86Z" stroke="#193166" stroke-width="1.68" stroke-miterlimit="10" stroke-linecap="round"/>
<path d="M329.375 557.043V448.38H364.891C374.31 448.38 383.343 452.123 390.004 458.785C396.664 465.447 400.406 474.483 400.406 483.904" stroke="#193166" stroke-width="1.68" stroke-miterlimit="10" stroke-linecap="round"/>
<path d="M400.448 306.199H329.375V377.289H400.448V306.199Z" stroke="#193166" stroke-width="1.68" stroke-miterlimit="10" stroke-linecap="round"/>
<path d="M400.427 412.814C400.427 422.236 404.169 431.271 410.83 437.933C417.49 444.595 426.523 448.338 435.943 448.338C445.362 448.338 454.395 444.595 461.056 437.933C467.716 431.271 471.458 422.236 471.458 412.814V377.29H400.427V412.814Z" stroke="#193166" stroke-width="1.68" stroke-miterlimit="10" stroke-linecap="round"/>
<path d="M435.964 306.199C445.383 306.199 454.416 302.456 461.077 295.794C467.737 289.132 471.479 280.096 471.479 270.675C471.479 261.253 467.737 252.217 461.077 245.555C454.416 238.893 445.383 235.15 435.964 235.15H400.448V306.199H435.964Z" stroke="#193166" stroke-width="1.68" stroke-miterlimit="10" stroke-linecap="round"/>
<path d="M329.375 270.654C329.375 261.232 325.633 252.196 318.973 245.534C312.312 238.872 303.279 235.129 293.86 235.129C284.44 235.129 275.407 238.872 268.747 245.534C262.086 252.196 258.344 261.232 258.344 270.654V306.178H329.375V270.654Z" stroke="#193166" stroke-width="1.68" stroke-miterlimit="10" stroke-linecap="round"/>
<path d="M114.193 306.199H258.344V341.723C258.344 351.145 254.602 360.181 247.942 366.843C241.281 373.505 232.248 377.248 222.829 377.248H114.193" stroke="#193166" stroke-width="1.68" stroke-miterlimit="10" stroke-linecap="round"/>
<path d="M580.073 306.199H506.786C497.406 306.26 488.432 310.029 481.821 316.685C475.21 323.34 471.5 332.341 471.5 341.723V377.248H577.858C578.631 377.248 579.363 377.248 580.073 377.248" stroke="#193166" stroke-width="1.68" stroke-miterlimit="10" stroke-linecap="round"/>
<path d="M329.271 199.584C329.271 209.006 333.012 218.042 339.673 224.704C346.333 231.366 355.367 235.109 364.786 235.109H400.302V126.321" stroke="#193166" stroke-width="1.68" stroke-miterlimit="10" stroke-linecap="round"/>
<path d="M329.396 126.341L329.292 199.814" stroke="#193166" stroke-width="1.68" stroke-miterlimit="10" stroke-linecap="round"/>
<path d="M400.427 556.144V483.883V483.361" stroke="#193166" stroke-width="1.68" stroke-miterlimit="10" stroke-linecap="round"/>
<path d="M400.427 126.425C400.427 126.425 399.194 95.2053 407.488 78.3626C422.613 52.4298 435.629 30.8644 435.671 30.6973C436.527 27.0612 424.452 25.6195 420.023 30.3839C410.246 40.8322 407.029 46.1609 400.511 54.4569C398.025 57.675 386.91 74.3923 387.202 66.3888C387.934 46.6415 388.728 21.6282 389.146 8.46331C389.161 7.44435 388.935 6.43608 388.487 5.52114C388.038 4.6062 387.379 3.81053 386.564 3.19909C385.749 2.58764 384.801 2.17789 383.797 2.00324C382.793 1.8286 381.763 1.89407 380.789 2.1943C370.985 5.26625 361.419 9.05165 352.167 13.5203C339.967 19.7893 331.381 45.8266 331.381 45.8266L329.5 126.55" stroke="#193166" stroke-width="1.68" stroke-miterlimit="10" stroke-linecap="round"/>
</svg>
