<svg width="431" height="514" viewBox="0 0 431 514" fill="none" xmlns="http://www.w3.org/2000/svg">
<g clip-path="url(#clip0_18_424)">
<path d="M240.661 422.851C256.673 408.378 279.968 417.713 303.986 388.983C313.478 377.621 328.875 357.503 333.657 355.295C338.439 353.088 349.234 351.17 346.264 365.933C343.293 380.697 323.875 400.2 317.282 405.049C358.581 389.128 368.942 371.976 384.918 348.456C388.064 342.291 390.32 335.713 391.621 328.917C395.244 314.841 403.105 308.255 410.35 307.568C430.359 265.424 436.122 217.928 426.771 172.23C417.421 126.532 393.463 85.1044 358.503 54.1813C323.543 23.2581 279.473 4.51318 232.925 0.767695C186.378 -2.97779 139.871 8.47878 100.406 33.4132C60.9405 58.3476 30.6509 95.4108 14.0965 139.024C-2.45791 182.638 -4.38173 230.442 8.6146 275.242C21.6109 320.042 48.8246 359.413 86.159 387.431C123.493 415.449 168.928 430.597 215.627 430.595C221.785 430.595 227.872 430.306 233.741 429.799C235.903 427.403 238.189 425.12 240.588 422.96" fill="#FCF6F0"/>
<path d="M222.727 507.595V459.687C223.813 445.611 224.575 437.397 240.587 422.815C256.6 408.233 279.894 417.677 303.913 388.946C313.405 377.584 328.801 357.466 333.583 355.259C338.365 353.052 349.161 351.134 346.191 365.897C342.749 382.723 318.984 404.831 315.325 406.134C383.867 381.999 391.403 328.88 391.403 328.88C396.982 307.966 411.401 303.551 419.769 310.788C417.777 316.071 410.204 358.19 396.474 386.052C385.303 409.497 368.502 429.82 347.567 445.213C333.076 455.49 317.752 457.19 310.035 478.829V507.776" fill="#193166"/>
<path d="M222.727 507.595V459.687C223.813 445.611 224.575 437.397 240.587 422.815C256.6 408.233 279.894 417.677 303.913 388.946C313.405 377.584 328.801 357.466 333.583 355.259C338.365 353.052 349.161 351.134 346.191 365.897C342.749 382.723 318.984 404.831 315.325 406.134C383.867 381.999 391.403 328.88 391.403 328.88C396.982 307.966 411.401 303.551 419.769 310.788C417.777 316.071 410.204 358.19 396.474 386.052C385.303 409.497 368.502 429.82 347.567 445.213C333.076 455.49 317.752 457.19 310.035 478.829V507.776" stroke="#FCF6F0" stroke-width="3.52" stroke-miterlimit="10" stroke-linecap="round"/>
<g clip-path="url(#clip1_18_424)">
<path d="M341.646 266.151C341.142 266.429 340.587 266.599 340.014 266.651C339.09 266.651 338.625 266.081 338.625 264.934V250.171C338.625 247.224 337.601 244.925 335.554 243.276C333.507 241.626 330.548 240.804 326.677 240.808C323.014 240.758 319.419 241.799 316.348 243.797V250.588C317.408 249.611 318.604 248.791 319.897 248.155C321.601 247.333 323.466 246.901 325.357 246.89C328.928 246.89 330.713 248.366 330.713 251.318V252.708L324.287 254.585C320.416 255.701 317.705 257.015 316.153 258.526C314.604 260.027 313.833 262.091 313.833 264.698C313.824 265.691 314.028 266.674 314.43 267.582C314.833 268.49 315.425 269.3 316.167 269.96C317.673 271.403 319.688 272.193 321.773 272.156C324.829 272.156 327.874 271.079 330.907 268.924C331.078 269.937 331.642 270.842 332.477 271.44C333.486 271.966 334.62 272.207 335.756 272.135C338.071 272.135 340.618 271.285 343.397 269.584V264.997C342.869 265.462 342.277 265.849 341.639 266.144L341.646 266.151ZM330.706 264.754C328.96 266.343 327.216 267.14 325.475 267.145C324.997 267.156 324.522 267.073 324.076 266.9C323.63 266.727 323.223 266.468 322.877 266.137C322.526 265.795 322.252 265.384 322.071 264.928C321.89 264.473 321.807 263.985 321.828 263.496C321.804 262.574 322.12 261.675 322.718 260.972C323.512 260.13 324.453 259.439 325.496 258.936C327.176 258.094 328.918 257.381 330.706 256.802V264.754Z" fill="#193166"/>
<path d="M197.901 166.484C202.032 166.484 205.401 167.561 208.008 169.716C209.24 170.667 210.233 171.892 210.911 173.294C211.588 174.695 211.931 176.236 211.911 177.792C211.949 179.737 211.379 181.645 210.279 183.249C209.082 184.914 207.447 186.213 205.556 187.002V187.385C208.405 187.931 210.99 189.416 212.898 191.604C214.642 193.663 215.577 196.287 215.53 198.985C215.566 201.362 214.897 203.697 213.606 205.693C212.313 207.672 210.457 209.219 208.279 210.134C205.734 211.174 203.003 211.678 200.256 211.615H181.369V166.484H197.901ZM195.581 185.251C197.535 185.359 199.466 184.776 201.034 183.603C201.699 183.046 202.226 182.341 202.573 181.545C202.92 180.749 203.078 179.883 203.034 179.016C203.071 178.226 202.924 177.437 202.605 176.714C202.285 175.99 201.802 175.35 201.193 174.845C199.811 173.763 198.084 173.218 196.331 173.309H190.08V185.251H195.581ZM197.609 204.824C200.564 204.824 202.791 204.27 204.291 203.163C205.04 202.601 205.638 201.863 206.033 201.014C206.428 200.165 206.607 199.232 206.556 198.297C206.585 197.414 206.396 196.538 206.004 195.746C205.613 194.954 205.032 194.271 204.312 193.758C202.819 192.646 200.839 192.09 198.29 192.09H190.08V204.852L197.609 204.824Z" fill="#193166"/>
<path d="M257.722 181.456H249.782V211.636H257.722V181.456Z" fill="#193166"/>
<path d="M285.687 182.137V166.484H293.578V211.664H279.686C274.86 211.664 271.001 210.273 268.106 207.493C265.212 204.713 263.746 200.911 263.709 196.087C263.676 193.37 264.371 190.693 265.724 188.337C267.043 186.039 268.964 184.145 271.281 182.86C273.611 181.541 276.245 180.855 278.922 180.872C281.225 180.908 283.506 181.336 285.666 182.137H285.687ZM281.499 205.554H285.666V188.08C284.094 187.252 282.345 186.818 280.568 186.815C279.395 186.76 278.223 186.954 277.13 187.384C276.037 187.814 275.048 188.47 274.226 189.31C273.42 190.186 272.795 191.214 272.388 192.333C271.98 193.451 271.797 194.64 271.85 195.83C271.85 202.317 275.069 205.561 281.506 205.561" fill="#193166"/>
<path d="M329.372 181.456V187.079H324.211C324.94 187.935 325.533 188.898 325.969 189.936C326.307 190.84 326.477 191.799 326.469 192.764C326.446 195.237 325.473 197.606 323.753 199.382C322.164 201.124 319.432 202.257 315.556 202.781C314.132 202.877 312.728 203.177 311.388 203.67C311.083 203.791 310.822 204.003 310.64 204.276C310.458 204.549 310.362 204.871 310.367 205.199C310.367 205.825 310.784 206.305 311.611 206.638C312.905 207.088 314.24 207.407 315.598 207.59C320.141 208.327 323.484 209.449 325.628 210.955C326.629 211.594 327.45 212.479 328.011 213.525C328.573 214.571 328.858 215.745 328.837 216.932C328.892 218.393 328.56 219.841 327.874 221.132C327.188 222.422 326.174 223.508 324.934 224.279C322.322 225.989 318.575 226.844 313.695 226.844C309.064 226.844 305.382 226.038 302.65 224.425C299.918 222.813 298.552 220.649 298.552 217.933C298.552 214.096 301.189 211.446 306.464 209.982C304.178 208.995 303.039 207.688 303.039 206.075C303.039 203.971 304.762 202.516 308.207 201.71V201.578C306.022 201.032 304.063 199.817 302.601 198.103C301.226 196.48 300.485 194.413 300.518 192.285C300.472 190.777 300.781 189.28 301.419 187.913C302.057 186.547 303.007 185.349 304.192 184.417C306.651 182.429 309.86 181.432 313.82 181.428L329.372 181.456ZM305.97 217.6C305.97 220.297 308.661 221.645 314.042 221.645C315.929 221.739 317.81 221.354 319.509 220.526C320.833 219.784 321.495 218.809 321.495 217.6C321.495 216.265 320.745 215.264 319.252 214.583C317.23 213.81 315.071 213.463 312.91 213.561C311.168 213.491 309.439 213.887 307.902 214.708C306.61 215.473 305.97 216.439 305.97 217.6ZM307.867 192.403C307.849 193.139 307.989 193.869 308.277 194.547C308.564 195.224 308.993 195.832 309.534 196.33C310.625 197.365 312.08 197.927 313.583 197.894C314.332 197.919 315.078 197.788 315.773 197.508C316.468 197.228 317.097 196.805 317.619 196.268C318.145 195.721 318.556 195.075 318.828 194.367C319.1 193.659 319.227 192.904 319.203 192.146C319.215 191.442 319.074 190.743 318.79 190.099C318.506 189.454 318.085 188.879 317.557 188.413C316.475 187.419 315.052 186.881 313.583 186.912C312.833 186.896 312.088 187.033 311.392 187.314C310.696 187.595 310.064 188.014 309.534 188.545C309.004 189.038 308.582 189.635 308.295 190.299C308.008 190.963 307.862 191.68 307.867 192.403Z" fill="#193166"/>
<path d="M347.453 180.879C351.89 180.879 355.397 182.299 357.977 185.139C360.556 187.98 361.848 191.919 361.853 196.956V198.158H340.514C340.682 200.541 341.762 202.766 343.529 204.372C345.224 205.825 347.537 206.555 350.475 206.555C352.344 206.56 354.199 206.226 355.949 205.568C357.882 204.809 359.71 203.804 361.388 202.579V208.494C357.859 210.992 353.575 212.241 348.537 212.241C343.777 212.241 339.891 210.809 336.881 207.945C333.871 205.081 332.366 201.268 332.366 196.504C332.366 191.916 333.755 188.17 336.534 185.265C339.312 182.359 342.945 180.906 347.433 180.906L347.453 180.879ZM354.379 193.341C354.287 191.453 353.585 189.646 352.378 188.191C351.791 187.562 351.073 187.069 350.275 186.748C349.477 186.426 348.618 186.283 347.759 186.328C346.878 186.289 345.997 186.426 345.169 186.732C344.342 187.037 343.583 187.505 342.938 188.107C341.606 189.545 340.792 191.388 340.625 193.341H354.379Z" fill="#193166"/>
<path d="M197.901 226.427C202.032 226.427 205.401 227.504 208.008 229.659C209.239 230.611 210.232 231.836 210.91 233.238C211.587 234.639 211.93 236.179 211.911 237.736C211.949 239.681 211.379 241.588 210.279 243.192C209.082 244.857 207.447 246.156 205.556 246.946V247.328C208.405 247.874 210.99 249.36 212.898 251.547C214.642 253.607 215.577 256.23 215.53 258.929C215.567 261.306 214.898 263.641 213.606 265.636C212.313 267.615 210.457 269.162 208.279 270.078C205.735 271.12 203.004 271.627 200.256 271.565H181.369V226.427H197.901ZM195.581 245.194C197.535 245.303 199.466 244.72 201.034 243.547C201.699 242.989 202.226 242.284 202.573 241.488C202.92 240.692 203.078 239.827 203.034 238.959C203.071 238.169 202.924 237.381 202.605 236.657C202.285 235.934 201.802 235.294 201.193 234.789C199.809 233.71 198.084 233.165 196.331 233.253H190.08V245.166L195.581 245.194ZM197.609 264.774C200.564 264.774 202.791 264.218 204.291 263.106C205.04 262.545 205.639 261.807 206.034 260.958C206.429 260.109 206.608 259.176 206.556 258.241C206.585 257.358 206.396 256.481 206.004 255.689C205.613 254.897 205.032 254.214 204.312 253.702C202.819 252.597 200.839 252.041 198.29 252.041H190.08V264.802L197.609 264.774Z" fill="#193166"/>
<path d="M229.833 226.427V245.618H230.027C232.584 242.407 235.672 240.804 239.294 240.808C240.736 240.748 242.174 240.999 243.511 241.545C244.847 242.091 246.05 242.918 247.039 243.971C248.997 246.084 249.977 248.841 249.977 252.242V271.565H242.072V253.758C242.159 252.03 241.651 250.325 240.634 248.927C240.166 248.341 239.567 247.874 238.885 247.562C238.204 247.251 237.458 247.104 236.71 247.133C235.498 247.136 234.314 247.496 233.306 248.169C231.97 249.116 230.797 250.273 229.833 251.596V271.565H221.893V226.427H229.833Z" fill="#193166"/>
<path d="M355.4 233.371H356.046V241.385H366.382V247.398H356.025V261.299C355.986 261.91 356.078 262.523 356.295 263.096C356.512 263.669 356.848 264.189 357.283 264.62C357.717 265.052 358.238 265.386 358.812 265.6C359.386 265.813 359.999 265.902 360.609 265.859C362.462 265.859 364.594 265.189 367.007 263.85V270.217C364.478 271.407 361.729 272.056 358.935 272.121C355.532 272.121 352.878 271.195 350.975 269.341C349.072 267.488 348.118 264.978 348.113 261.814V247.398H343.404V246.105L355.4 233.371Z" fill="#193166"/>
<path d="M312.271 242.942C311.543 242.386 310.767 241.897 309.951 241.482C308.973 241.028 307.909 240.791 306.832 240.787C305.04 240.805 303.322 241.503 302.025 242.741C300.562 244.043 299.107 246.146 297.663 249.052H297.531V241.385H289.598V271.565H297.531V257.796C297.549 256.226 297.92 254.679 298.614 253.271C299.272 251.851 300.258 250.607 301.49 249.643C302.51 248.783 303.79 248.294 305.123 248.252C306.241 248.252 307.658 248.829 309.346 249.921L312.271 242.942Z" fill="#193166"/>
<path d="M283.472 266.151C282.97 266.428 282.417 266.598 281.846 266.651C280.922 266.651 280.457 266.081 280.457 264.934V250.171C280.524 248.862 280.281 247.555 279.749 246.357C279.217 245.159 278.41 244.103 277.394 243.276C275.347 241.626 272.385 240.804 268.509 240.808C264.661 240.749 260.891 241.899 257.729 244.096V250.998C258.896 249.832 260.248 248.867 261.73 248.141C263.433 247.319 265.299 246.887 267.19 246.876C270.76 246.876 272.545 248.352 272.545 251.304V252.694L266.12 254.571C262.253 255.688 259.542 257.001 257.986 258.512C256.437 260.013 255.659 262.078 255.659 264.684C255.651 265.678 255.855 266.661 256.259 267.569C256.663 268.477 257.257 269.287 258 269.946C259.506 271.389 261.521 272.179 263.606 272.142C266.662 272.142 269.707 271.065 272.74 268.91C272.827 269.415 273.013 269.898 273.287 270.331C273.561 270.764 273.918 271.139 274.337 271.433C275.347 271.959 276.48 272.2 277.616 272.128C279.931 272.128 282.478 271.278 285.257 269.577V264.99C284.728 265.457 284.134 265.843 283.492 266.137L283.472 266.151ZM272.566 264.747C270.825 266.336 269.081 267.133 267.336 267.138C266.858 267.149 266.382 267.066 265.936 266.893C265.491 266.72 265.083 266.461 264.738 266.13C264.387 265.788 264.112 265.377 263.931 264.921C263.75 264.466 263.668 263.978 263.689 263.489C263.664 262.567 263.981 261.668 264.578 260.965C265.372 260.123 266.314 259.432 267.356 258.929C269.037 258.087 270.778 257.374 272.566 256.795V264.747Z" fill="#193166"/>
<path d="M253.62 166.322L248.161 171.78L253.616 177.243L259.075 171.784L253.62 166.322Z" fill="#193166"/>
<path d="M244.566 183.04C243.838 182.484 243.062 181.996 242.246 181.581C241.27 181.123 240.205 180.886 239.127 180.886C237.335 180.904 235.618 181.602 234.32 182.839C232.852 184.141 231.398 186.245 229.958 189.15H229.833V181.456H221.893V211.664H229.833V197.901C229.848 196.331 230.216 194.785 230.91 193.376C231.565 191.955 232.551 190.711 233.785 189.748C234.805 188.889 236.085 188.399 237.418 188.358C238.536 188.358 239.953 188.928 241.641 190.026L244.566 183.04Z" fill="#193166"/>
<path d="M146.367 222.59C143.519 215.104 138.474 208.655 131.894 204.092C125.314 199.529 117.509 197.065 109.503 197.025H104.064V179.648C104.064 167.95 99.0908 154 75.4042 154H70.0695V207.688H93.4505V220.415H70.0695V236.513C70.0524 242.308 71.31 248.035 73.7529 253.29C76.1958 258.544 79.7643 263.196 84.2052 266.915C88.6461 270.634 93.8505 273.331 99.4494 274.812C105.048 276.293 110.904 276.523 116.602 275.486C122.3 274.449 127.699 272.17 132.418 268.81C137.137 265.451 141.059 261.093 143.906 256.047C146.754 251.001 148.456 245.39 148.894 239.611C149.331 233.833 148.492 228.029 146.436 222.611L146.367 222.59ZM104.113 231.105H109.503C110.576 231.105 111.625 231.423 112.517 232.02C113.409 232.616 114.105 233.464 114.515 234.456C114.926 235.448 115.033 236.539 114.824 237.593C114.615 238.646 114.098 239.613 113.339 240.372C112.581 241.131 111.614 241.648 110.562 241.858C109.509 242.067 108.418 241.96 107.427 241.549C106.436 241.138 105.589 240.442 104.992 239.549C104.396 238.657 104.078 237.607 104.078 236.533L104.113 231.105ZM80.732 164.996C91.0958 166.324 93.402 171.863 93.402 179.676L93.4435 197.053H80.732V164.996ZM109.503 265.337C101.866 265.328 94.5447 262.288 89.1445 256.885C83.7443 251.481 80.7065 244.155 80.6973 236.513V231.084H93.4159V236.513C93.4159 239.697 94.3593 242.809 96.127 245.456C97.8947 248.103 100.407 250.167 103.347 251.385C106.286 252.604 109.521 252.922 112.642 252.301C115.762 251.68 118.629 250.147 120.879 247.896C123.129 245.644 124.661 242.776 125.282 239.653C125.902 236.53 125.584 233.294 124.366 230.352C123.148 227.411 121.087 224.897 118.441 223.128C115.795 221.359 112.685 220.415 109.503 220.415H104.078V207.688H109.503C117.143 207.688 124.47 210.725 129.872 216.13C135.274 221.536 138.309 228.868 138.309 236.513C138.309 244.157 135.274 251.489 129.872 256.895C124.47 262.301 117.143 265.337 109.503 265.337Z" fill="#193166"/>
</g>
</g>
<defs>
<clipPath id="clip0_18_424">
<rect width="431" height="514" fill="white"/>
</clipPath>
<clipPath id="clip1_18_424">
<rect width="297" height="122" fill="white" transform="translate(70 154)"/>
</clipPath>
</defs>
</svg>
