<svg width="40" height="50" viewBox="0 0 40 50" fill="none" xmlns="http://www.w3.org/2000/svg">
<path d="M22.5706 35.5913C23.4682 35.0723 24.3541 34.6094 25.0493 35.6945C25.6595 36.6498 25.2723 37.5344 24.4949 38.1684C23.4976 38.9852 22.6351 38.419 21.9575 37.6317C20.5113 35.954 20.4116 33.9105 20.8663 31.9173C21.4914 29.0156 22.9392 26.3579 25.0347 24.2655C28.7953 20.5325 33.4096 21.2137 35.8678 25.8578C38.9977 25.4479 39.8074 25.9551 39.6812 27.9219C38.5079 28.0427 37.1908 27.8481 36.3078 28.373C35.6566 28.7622 35.5568 30.0862 35.1755 31.0887C38.5606 31.1241 39.6196 32.51 38.6956 34.7657C37.9387 34.3293 37.1614 33.5125 36.3694 33.4977C34.1752 33.4565 33.3626 35.3171 32.2802 37.0833C33.8936 36.8327 35.4629 36.5348 36.3518 38.0357C36.6627 38.5635 36.3987 39.4363 36.3987 39.9877C35.196 39.4923 34.2485 38.8082 33.2776 38.7699C31.4999 38.7168 29.8337 39.3272 28.8276 40.5656C30.0332 41.3736 31.3063 42.0813 32.3799 43.0219C32.7554 43.3462 32.6381 44.2397 32.6029 44.9503C30.0743 42.9039 27.5721 41.4119 24.1781 43.4907C26.4398 44.0126 28.1793 44.8677 27.9915 47.4832C27.0147 46.8315 26.1699 45.9676 25.1637 45.6874C24.1576 45.4073 22.817 45.3926 22.025 45.8762C20.9601 46.5426 21.3503 47.8753 21.8079 48.9634C21.934 49.2582 22.0044 49.5944 22.1218 49.9866H17.5456C17.7539 49.332 17.9856 48.7481 18.1323 48.1437C18.5841 46.2153 17.5456 44.9798 15.6155 45.3395C14.6562 45.5194 13.7674 46.1386 12.8815 46.6281C12.4764 46.9137 12.1018 47.2408 11.7639 47.6041C11.5585 45.2599 12.2362 44.5168 15.3866 43.476C12.5442 41.7864 10.6932 42.1225 7.308 44.9503C6.44851 42.9393 7.75976 41.5328 11.0247 40.9637C9.2646 38.4043 5.2693 37.9679 3.37431 40.2148C3.32151 39.5248 2.9959 38.6933 3.26284 38.1713C4.11646 36.5113 5.73569 36.8238 7.34613 37.0715C6.37517 35.208 5.41597 33.4388 3.19538 33.4712C2.45322 33.4712 1.72867 34.3882 0.960114 34.9072C0.558236 34.1288 0.411565 32.9139 1.25346 32.0736C1.91641 31.416 3.01348 31.2125 4.30418 30.6434C4.11644 30.1304 4.02845 28.8064 3.36257 28.3641C2.54708 27.8216 1.24465 28.0192 0.0360804 27.8835C-0.242594 25.9728 1.10089 25.0912 3.79377 25.9875C4.61513 24.0975 5.84717 22.5877 7.97683 22.0894C11.4177 21.2844 13.8437 22.9416 15.768 25.5246C17.7187 28.1548 19.3174 31.0209 18.9214 34.4531C18.7836 35.6326 18.1353 36.8415 17.4547 37.8617C16.9443 38.6284 15.8325 38.9233 15.1725 38.077C14.7178 37.4873 14.4245 36.4081 14.6504 35.7535C15.0229 34.6949 16.0173 34.9219 16.8622 35.4291C16.9296 35.4674 17.0469 35.4291 17.1379 35.4114C17.8712 31.357 14.6181 25.7192 10.831 24.4808C10.2014 24.2697 9.51968 24.2757 8.89381 24.4979C8.26793 24.7201 7.73365 25.1457 7.3755 25.7074C6.35467 27.2024 6.2901 28.889 6.68318 30.5255C7.02932 31.9703 7.72749 33.3297 8.27017 34.7244L8.65153 34.5976C8.44325 33.7572 8.17925 32.9257 8.03258 32.0765C7.71284 30.2218 8.54004 28.7445 10.0595 28.3406C11.8577 27.8599 13.7821 28.8271 14.2045 30.6464C14.3805 31.4042 14.1429 32.3596 13.8055 33.0908C13.6589 33.4063 12.4356 33.6452 12.2977 33.4624C11.846 32.8726 11.6524 32.0559 11.3825 31.3187C11.3394 31.0984 11.3217 30.8738 11.3297 30.6494C10.0566 31.0975 9.70169 32.0647 10.0478 33.0967C10.4484 34.4049 11.0544 35.6402 11.8431 36.756C13.6589 39.1533 15.8501 41.2084 18.5899 42.5471C19.206 42.842 20.1857 42.9983 20.7489 42.7152C24.2948 40.9968 27.2126 38.2 29.0886 34.7214C29.4043 34.1673 29.6123 33.5579 29.7017 32.9257C29.8015 31.9733 29.6225 31.0651 28.3934 30.7113C28.3523 31.2538 28.4521 31.8052 28.2438 32.1856C27.9505 32.7134 27.4489 33.4447 26.9942 33.4742C26.4926 33.5095 25.7269 32.967 25.46 32.4687C24.7325 31.1034 25.8384 29.0364 27.4635 28.4585C29.3057 27.8039 31.3327 28.6384 31.5293 30.3604C31.6671 31.5664 31.2975 32.8431 31.0775 34.0727C30.9983 34.5209 30.705 34.9308 30.614 35.3967C32.4327 33.0672 33.5973 30.5049 33.04 27.4619C32.5032 24.5457 30.1652 23.552 27.6777 25.1029C24.1048 27.3321 21.8842 31.7816 22.5706 35.5913Z" fill="#CE4C16"/>
<path d="M26.249 6.45866C22.7054 9.7582 21.1713 13.9217 19.907 18.4921C19.2469 16.6167 18.8333 14.8593 18.0325 13.3025C16.9674 11.2159 15.7155 9.23115 14.2924 7.37274C13.5796 6.44981 13.5209 5.8306 14.4244 5.42664C15.982 4.73371 16.5922 3.40682 17.3813 2.05634C18.9829 -0.694749 20.7166 -0.68297 22.3182 2.07696C23.1014 3.43039 23.7233 4.79267 25.2898 5.42369C25.6447 5.56817 25.8706 6.03701 26.249 6.45866ZM19.7955 9.90563C21.447 8.449 21.7286 7.09262 20.7606 5.81291C20.1739 5.02857 19.6136 5.02857 19.0005 5.75688C17.9944 6.93634 18.2349 8.31336 19.7925 9.90563H19.7955Z" fill="#CE4C16"/>
<path d="M31.277 14.0219C31.7639 15.9974 32.2039 17.7814 32.685 19.7275C28.9948 19.9722 26.1171 21.7915 23.1016 24.0738C23.1514 23.372 23.0312 22.5995 23.2776 21.9773C24.7413 18.2797 27.6044 15.9326 31.277 14.0219Z" fill="#CE4C16"/>
<path d="M7.02344 19.7452C7.51332 17.7608 7.95334 15.9739 8.42856 14.0573C12.1423 15.9061 15.0082 18.3534 16.5101 22.1425C16.7301 22.6938 16.5424 23.4104 16.5424 24.4277C13.6324 21.8948 10.8134 19.9575 7.02344 19.7452Z" fill="#CE4C16"/>
<path d="M17.4511 21.4141C15.2247 17.8522 13.2153 14.4111 9.79492 11.9372C10.496 10.7577 11.1589 9.64904 11.9363 8.33984C12.523 8.90598 13.0803 9.30405 13.4734 9.81417C15.7175 12.7392 16.8703 16.1655 17.7885 19.6744C17.9234 20.1934 17.5743 20.8332 17.4511 21.4141Z" fill="#CE4C16"/>
<path d="M22.292 21.7945C22.116 20.8008 21.7875 20.1256 21.9342 19.5771C22.8406 16.1714 23.9875 12.8513 26.0967 9.96158C26.5249 9.37185 26.874 8.73199 27.27 8.11572L27.8743 8.51083C28.5373 9.61952 29.2031 10.7253 29.784 11.7013C28.3613 13.2847 26.918 14.6765 25.7359 16.2628C24.5537 17.8492 23.6062 19.6479 22.292 21.7945Z" fill="#CE4C16"/>
</svg>
