<svg width="41" height="50" viewBox="0 0 41 50" fill="none" xmlns="http://www.w3.org/2000/svg">
<path d="M8.92983 16.1747L10.6641 13.9392C13.952 15.4876 15.7733 18.491 19.1193 27.8106C20.2669 25.317 16.5953 15.0908 13.1139 11.2036L15.3897 8.40351C16.8467 11.7069 18.1877 14.7424 19.5512 17.8232C19.5512 15.0263 19.5802 12.2391 19.5093 9.43581C19.5093 9.08741 19.0032 8.64869 18.6293 8.4261C17.8557 7.96479 16.9048 7.75833 16.2311 7.19702C15.3091 6.43571 14.8063 5.22276 15.5283 4.18724C15.9345 3.6098 17.0337 3.51947 17.817 3.21946L18.0556 3.62593C18.2232 3.0743 18.2844 2.45492 18.5874 1.99039C19.102 1.29186 19.6609 0.627036 20.2604 0C20.8337 0.657012 21.3717 1.34403 21.8722 2.05814C22.1429 2.48718 22.1945 3.05494 22.346 3.56141L22.6426 3.14204C23.4485 3.56464 24.5767 3.78723 24.9893 4.45499C25.7113 5.64213 24.8893 6.69055 23.903 7.47445C23.6364 7.74182 23.3021 7.93142 22.9359 8.02286C20.7729 8.20351 20.7375 9.61646 20.8278 11.2939C20.9374 13.3811 20.8535 15.4876 20.8535 17.7458C22.2622 14.6263 23.6064 11.6585 25.0441 8.44868L27.2812 11.1746C23.6838 15.6457 20.2733 25.046 21.2952 28.0171C22.6394 22.3459 24.6379 17.2554 29.5989 13.7843L31.4234 16.1554C26.4624 19.3813 24.0642 24.2718 22.4363 29.6623C22.3041 30.1043 22.5845 30.6656 22.8585 31.2495C24.7669 25.8686 27.7293 21.4846 33.2253 19.1297C33.4381 19.6458 33.6218 20.0781 33.7959 20.5136C33.97 20.9491 34.1376 21.4104 34.3374 21.9362C29.3345 24.1783 26.7912 28.5816 24.3962 33.1076C24.2285 33.4302 24.2995 33.856 24.4348 34.3238C27.4424 30.6688 30.2984 26.9461 34.8306 24.9363C35.153 26.6235 35.2819 27.7139 33.3253 28.5429C29.9245 29.9849 27.6003 32.8882 24.9119 35.9625C27.1393 35.127 28.8671 34.1818 30.7142 33.8657C32.8603 33.4886 35.0504 33.4331 37.2128 33.7012C39.3113 33.9721 40.2687 35.3141 40.4137 37.1561C35.5785 34.8335 30.8142 35.0431 26.1111 37.2658L26.1498 37.7239C27.4101 37.4884 28.6673 37.2077 29.9341 37.0206C32.1165 36.698 34.2246 36.898 36.1136 38.1594C37.4739 39.0659 37.9091 40.3046 37.3869 42.1369C36.6526 41.213 35.7288 40.4575 34.6777 39.9216C33.6267 39.3857 32.4729 39.0818 31.2944 39.0304C28.8755 38.8176 26.4413 39.1985 24.2028 40.1401C25.7726 40.2369 26.9911 40.1401 28.1096 40.4272C29.5591 40.7672 30.949 41.324 32.2325 42.0789C33.8442 43.095 34.0699 44.4951 33.2737 46.5952C30.8335 42.6595 27.149 41.7369 22.9746 42.3337C22.4072 42.4144 21.9592 43.3338 21.5595 44.1177C23.9997 43.666 26.3947 43.0918 28.2418 45.1016C28.9155 45.8306 29.2089 46.8984 29.6053 47.6436C27.8066 47.0984 26.1497 46.3274 24.4284 46.1435C22.0623 45.8919 21.682 46.4371 21.6336 48.8017C21.6336 49.1694 21.5724 49.5372 21.5369 49.9953H18.8389C18.7683 49.4834 18.7489 48.9658 18.7809 48.4501C19.0291 46.8178 18.1781 46.2564 16.7243 46.1048C14.5033 45.8726 12.6207 46.5758 10.9542 48.2372C11.1669 44.3435 13.404 43.2305 18.6325 44.2789C18.6551 43.0918 18.2199 42.4079 16.9918 42.2273C12.9495 41.6337 9.55196 43.0725 7.23426 46.421C6.1963 44.9596 6.47999 43.2918 8.06272 42.0627C10.0291 40.5401 12.3532 40.2111 14.7547 40.2111H15.9248C12.0566 37.9529 6.67659 38.7142 3.07594 41.8886C2.37967 40.1982 2.9148 38.8046 4.71351 37.8432C7.13758 36.5529 9.69059 36.7561 12.2533 37.3077C12.898 37.4465 13.5427 37.6303 14.4646 37.8336C11.8471 35.0561 4.67483 34.8528 0.000755437 37.1884C-0.0314795 35.4464 0.9678 34.2367 3.01794 33.6399C5.70634 32.8721 8.34316 33.2366 10.9155 34.156C12.2726 34.6399 13.5781 35.2593 15.1254 35.9077C14.9735 35.5666 14.7866 35.2423 14.5677 34.9399C11.9889 32.2076 9.53584 29.3752 5.90618 27.8687C5.37108 27.6493 5.38397 26.0977 5.09386 24.988C8.04336 25.7396 9.70348 27.2461 15.7153 34.298C16.9596 32.2108 10.4094 23.8169 5.99 22.0008C6.33814 21.0846 6.68952 20.1652 7.09568 19.0974C12.5756 21.4556 15.5734 25.7493 17.2658 31.1753L17.6687 31.1333C17.7235 30.4881 17.9911 29.7881 17.8009 29.2236C16.1859 24.0879 13.8779 19.3555 8.92983 16.1747ZM20.2121 29.8591C18.9001 32.3947 17.7139 34.6431 16.5856 36.9206C16.5341 37.0818 16.5195 37.2524 16.5429 37.42C16.5664 37.5875 16.6273 37.7476 16.721 37.8884C17.8106 39.3207 18.9581 40.7111 20.2024 42.2595C21.4434 40.7175 22.591 39.3336 23.6838 37.9013C23.7752 37.7594 23.8336 37.5988 23.8548 37.4313C23.876 37.2639 23.8595 37.0938 23.8063 36.9335C22.6877 34.6625 21.5176 32.4076 20.2121 29.8591ZM20.0251 8.6132H20.4764C20.7149 7.72607 21.0953 6.8454 21.1211 5.94859C21.1404 5.5389 20.4764 5.1034 20.1283 4.67758C19.8285 5.1034 19.2515 5.55503 19.2869 5.94859C19.3804 6.84863 19.764 7.71962 20.0251 8.6132Z" fill="#E08B19"/>
</svg>
